<svg width="9" height="12" viewBox="0 0 9 12" fill="none" xmlns="http://www.w3.org/2000/svg">
<path d="M0.692417 10.9987C0.627015 11.0456 0.549948 11.0736 0.469693 11.0795C0.389438 11.0854 0.309104 11.0691 0.237529 11.0323C0.165954 10.9955 0.10591 10.9397 0.0640035 10.871C0.0220967 10.8023 -4.99886e-05 10.7234 8.47231e-08 10.6429V1.89583C8.47231e-08 1.39303 0.199739 0.910814 0.555277 0.555277C0.910815 0.199739 1.39303 0 1.89583 0H6.26967C6.77247 0 7.25469 0.199739 7.61022 0.555277C7.96576 0.910814 8.1655 1.39303 8.1655 1.89583V10.6435C8.16552 10.724 8.14332 10.803 8.10134 10.8717C8.05936 10.9404 7.99923 10.9962 7.92758 11.0329C7.85592 11.0697 7.77552 11.0859 7.69523 11.0799C7.61494 11.0738 7.53786 11.0458 7.4725 10.9987L4.08333 8.55983L0.692417 10.9987ZM7.29108 1.89583C7.29108 1.62509 7.18353 1.36544 6.99209 1.174C6.80065 0.982552 6.54099 0.875 6.27025 0.875H1.89583C1.62509 0.875 1.36544 0.982552 1.174 1.174C0.982552 1.36544 0.875 1.62509 0.875 1.89583V9.7895L3.82725 7.66558C3.90168 7.61203 3.99106 7.58323 4.08275 7.58323C4.17444 7.58323 4.26382 7.61203 4.33825 7.66558L7.2905 9.7895L7.29108 1.89583Z" fill="#2481FB"/>
</svg>
