<svg width="14" height="14" viewBox="0 0 14 14" fill="none" xmlns="http://www.w3.org/2000/svg">
<path d="M9.1875 5.25H10.2812C10.5713 5.25 10.8495 5.36523 11.0546 5.57035C11.2598 5.77547 11.375 6.05367 11.375 6.34375V11.5937C11.375 11.8838 11.2598 12.162 11.0546 12.3671C10.8495 12.5723 10.5713 12.6875 10.2812 12.6875H3.71875C3.42867 12.6875 3.15047 12.5723 2.94535 12.3671C2.74023 12.162 2.625 11.8838 2.625 11.5937V6.34375C2.625 6.05367 2.74023 5.77547 2.94535 5.57035C3.15047 5.36523 3.42867 5.25 3.71875 5.25H4.8125M9.1875 3.5L7 1.3125M7 1.3125L4.8125 3.5M7 1.3125V8.77734" stroke="#2481FB" stroke-width="0.8" stroke-linecap="round" stroke-linejoin="round"/>
</svg>
