<svg width="18" height="18" viewBox="0 0 18 18" fill="none" xmlns="http://www.w3.org/2000/svg">
<path d="M8.99939 14.9995C10.5907 14.9995 12.1168 14.3674 13.242 13.2422C14.3672 12.1169 14.9994 10.5908 14.9994 8.99951C14.9994 7.40821 14.3672 5.88209 13.242 4.75687C12.1168 3.63165 10.5907 2.99951 8.99939 2.99951C7.40809 2.99951 5.88197 3.63165 4.75675 4.75687C3.63153 5.88209 2.99939 7.40821 2.99939 8.99951C2.99939 10.5908 3.63153 12.1169 4.75675 13.2422C5.88197 14.3674 7.40809 14.9995 8.99939 14.9995ZM8.99939 1.49951C9.9843 1.49951 10.9596 1.6935 11.8695 2.07042C12.7795 2.44733 13.6063 2.99977 14.3027 3.69621C14.9991 4.39265 15.5516 5.21944 15.9285 6.12939C16.3054 7.03933 16.4994 8.0146 16.4994 8.99951C16.4994 10.9886 15.7092 12.8963 14.3027 14.3028C12.8962 15.7093 10.9885 16.4995 8.99939 16.4995C4.85189 16.4995 1.49939 13.1245 1.49939 8.99951C1.49939 7.01039 2.28957 5.10273 3.69609 3.69621C5.10261 2.28969 7.01027 1.49951 8.99939 1.49951ZM9.37439 5.24951V9.18701L12.7494 11.1895L12.1869 12.112L8.24939 9.74951V5.24951H9.37439Z" fill="#2481FB"/>
</svg>
