<svg width="114" height="114" viewBox="0 0 114 114" fill="none" xmlns="http://www.w3.org/2000/svg">
<path d="M95.625 1V17.875M95.625 17.875V34.75M95.625 17.875H112.5M95.625 17.875H78.75" stroke="#959595" stroke-width="2" stroke-linecap="round" stroke-linejoin="round"/>
<path fill-rule="evenodd" clip-rule="evenodd" d="M61.875 1H16.875C12.3995 1 8.10725 2.7779 4.94257 5.94257C1.7779 9.10725 0 13.3995 0 17.875V76.9375C0 77.425 0.0600004 77.8937 0.18 78.3437C0.0609323 78.803 0.000451664 79.2755 0 79.75V96.625C0 101.101 1.7779 105.393 4.94257 108.557C8.10725 111.722 12.3995 113.5 16.875 113.5H95.625C100.101 113.5 104.393 111.722 107.557 108.557C110.722 105.393 112.5 101.101 112.5 96.625V57.25C112.5 56.7755 112.439 56.303 112.32 55.8437C112.439 55.3845 112.5 54.912 112.5 54.4375V51.625H101.25V51.715C77.0794 52.4969 59.625 58.3187 47.3625 66.4694C52.0087 68.1175 57.2062 70.4631 62.3025 73.5344C70.1719 78.2594 78.1706 84.8969 83.5537 93.6887C83.9393 94.3188 84.197 95.0187 84.3122 95.7484C84.4273 96.4781 84.3975 97.2233 84.2246 97.9415C84.0517 98.6597 83.7391 99.3368 83.3045 99.9342C82.8699 100.532 82.322 101.038 81.6919 101.423C81.0618 101.809 80.3619 102.066 79.6322 102.182C78.9025 102.297 78.1573 102.267 77.4391 102.094C76.7209 101.921 76.0437 101.608 75.4464 101.174C74.849 100.739 74.3431 100.191 73.9575 99.5612C69.8175 92.7943 63.3937 87.31 56.5087 83.1756C49.635 79.0469 42.6431 76.4706 37.7944 75.3456C30.9637 73.7876 23.9701 73.0586 16.965 73.1744H16.8412C14.8837 73.2044 13.02 73.2887 11.25 73.4275V17.875C11.25 16.3832 11.8426 14.9524 12.8975 13.8975C13.9524 12.8426 15.3832 12.25 16.875 12.25H61.875V1ZM36.5625 23.5C33.4971 23.53 30.5126 24.4869 28.0012 26.245C24.795 28.5512 22.5 32.3537 22.5 37.5625C22.5 42.7712 24.795 46.5681 28.0012 48.8744C30.5071 50.6441 33.4948 51.604 36.5625 51.625C38.8687 51.625 42.2044 50.9781 45.1237 48.8744C48.33 46.5681 50.625 42.7712 50.625 37.5625C50.625 32.3537 48.33 28.5569 45.1237 26.245C42.6172 24.4773 39.6296 23.5193 36.5625 23.5Z" fill="#959595"/>
</svg>
