<svg width="21" height="21" viewBox="0 0 21 21" fill="none" xmlns="http://www.w3.org/2000/svg">
<path d="M17.2389 12.5922V17.0322C17.2387 17.6604 16.989 18.2628 16.5448 18.7071C16.1006 19.1513 15.4982 19.401 14.8699 19.4012H3.26894C2.9567 19.4011 2.64756 19.3393 2.35928 19.2193C2.071 19.0993 1.80928 18.9236 1.58914 18.7021C1.369 18.4807 1.19478 18.2179 1.07651 17.9289C0.958236 17.64 0.898231 17.3305 0.899944 17.0182V5.43022C0.898086 5.11847 0.95812 4.80945 1.07657 4.52107C1.19501 4.23269 1.36951 3.97068 1.58996 3.75024C1.8104 3.52979 2.07241 3.35529 2.36079 3.23684C2.64917 3.1184 2.95819 3.05836 3.26994 3.06022H7.70894" stroke="#3EBA88" stroke-width="1.8" stroke-linecap="round" stroke-linejoin="round"/>
<path d="M17.2389 7.14572L13.1539 3.05972M4.98389 13.9537V11.7887C4.98589 11.4317 5.12789 11.0887 5.37889 10.8357L14.9109 1.30372C15.0374 1.17583 15.188 1.0743 15.3539 1.005C15.5199 0.935705 15.698 0.900024 15.8779 0.900024C16.0578 0.900024 16.2358 0.935705 16.4018 1.005C16.5678 1.0743 16.7184 1.17583 16.8449 1.30372L18.9959 3.45472C19.1238 3.5812 19.2253 3.73179 19.2946 3.89778C19.3639 4.06377 19.3996 4.24185 19.3996 4.42172C19.3996 4.60159 19.3639 4.77968 19.2946 4.94567C19.2253 5.11165 19.1238 5.26224 18.9959 5.38872L9.46389 14.9207C9.21042 15.1724 8.8681 15.3143 8.51089 15.3157H6.34589C6.16695 15.316 5.98973 15.2809 5.82436 15.2126C5.659 15.1442 5.50875 15.0439 5.38222 14.9174C5.2557 14.7909 5.15538 14.6406 5.08703 14.4752C5.01867 14.3099 4.98362 14.1327 4.98389 13.9537Z" stroke="#3EBA88" stroke-width="1.8" stroke-linecap="round" stroke-linejoin="round"/>
</svg>
