<svg width="22" height="22" viewBox="0 0 22 22" fill="none" xmlns="http://www.w3.org/2000/svg">
<path d="M10.8999 13.9C11.6956 13.9 12.4586 13.584 13.0212 13.0213C13.5838 12.4587 13.8999 11.6957 13.8999 10.9C13.8999 10.1044 13.5838 9.34131 13.0212 8.7787C12.4586 8.21609 11.6956 7.90002 10.8999 7.90002C10.1043 7.90002 9.34119 8.21609 8.77858 8.7787C8.21597 9.34131 7.8999 10.1044 7.8999 10.9C7.8999 11.6957 8.21597 12.4587 8.77858 13.0213C9.34119 13.584 10.1043 13.9 10.8999 13.9Z" stroke="black" stroke-width="1.8" stroke-linecap="round" stroke-linejoin="round"/>
<path d="M18.5219 9.29502L17.4249 6.64502L18.8999 4.90002L16.8999 2.90002L15.1649 4.38302L12.4579 3.27002L11.8349 0.900024H9.8809L9.2489 3.30102L6.6039 4.41602L4.8999 2.90002L2.8999 4.90002L4.3529 6.68902L3.2729 9.34602L0.899902 9.90002V11.9L3.3009 12.556L4.4159 15.2L2.8999 16.9L4.8999 18.9L6.6909 17.44L9.2969 18.512L9.8999 20.9H11.8999L12.5039 18.513L15.1549 17.415C15.5969 17.732 16.8999 18.9 16.8999 18.9L18.8999 16.9L17.4159 15.15L18.5139 12.498L20.8999 11.878V9.90002L18.5219 9.29502Z" stroke="black" stroke-width="1.8" stroke-linecap="round" stroke-linejoin="round"/>
</svg>
