<svg width="94" height="94" viewBox="0 0 94 94" fill="none" xmlns="http://www.w3.org/2000/svg">
<g filter="url(#filter0_dii_1_1123)">
<path fill-rule="evenodd" clip-rule="evenodd" d="M67.9333 33.6688C67.9451 33.3793 67.9511 33.0884 67.9511 32.796C67.9511 21.1981 58.5491 11.7961 46.9511 11.7961C35.3532 11.7961 25.9512 21.1981 25.9512 32.796C25.9512 44.394 35.3532 53.796 46.9511 53.796C51.6786 53.796 56.0412 52.2339 59.5509 49.5977C59.5518 51.9165 61.4318 53.7961 63.7509 53.7961C66.0705 53.7961 67.9509 51.9157 67.9509 49.5961V34.0561C67.9509 33.9255 67.9449 33.7963 67.9333 33.6688ZM46.9511 45.3999C39.9902 45.3999 34.3472 39.757 34.3472 32.796C34.3472 25.8351 39.9902 20.1921 46.9511 20.1921C53.9121 20.1921 59.555 25.8351 59.555 32.796C59.555 39.757 53.9121 45.3999 46.9511 45.3999Z" fill="white"/>
</g>
<defs>
<filter id="filter0_dii_1_1123" x="-2.86102e-05" y="0" width="93.9023" height="93.9024" filterUnits="userSpaceOnUse" color-interpolation-filters="sRGB">
<feFlood flood-opacity="0" result="BackgroundImageFix"/>
<feColorMatrix in="SourceAlpha" type="matrix" values="0 0 0 0 0 0 0 0 0 0 0 0 0 0 0 0 0 0 127 0" result="hardAlpha"/>
<feOffset dy="14.1551"/>
<feGaussianBlur stdDeviation="12.9756"/>
<feColorMatrix type="matrix" values="0 0 0 0 0.8375 0 0 0 0 0.201 0 0 0 0 0 0 0 0 0.35 0"/>
<feBlend mode="normal" in2="BackgroundImageFix" result="effect1_dropShadow_1_1123"/>
<feBlend mode="normal" in="SourceGraphic" in2="effect1_dropShadow_1_1123" result="shape"/>
<feColorMatrix in="SourceAlpha" type="matrix" values="0 0 0 0 0 0 0 0 0 0 0 0 0 0 0 0 0 0 127 0" result="hardAlpha"/>
<feOffset dy="-9.43676"/>
<feGaussianBlur stdDeviation="5.89798"/>
<feComposite in2="hardAlpha" operator="arithmetic" k2="-1" k3="1"/>
<feColorMatrix type="matrix" values="0 0 0 0 0.8125 0 0 0 0 0.423448 0 0 0 0 0.0643229 0 0 0 0.45 0"/>
<feBlend mode="normal" in2="shape" result="effect2_innerShadow_1_1123"/>
<feColorMatrix in="SourceAlpha" type="matrix" values="0 0 0 0 0 0 0 0 0 0 0 0 0 0 0 0 0 0 127 0" result="hardAlpha"/>
<feOffset dy="-3.53879"/>
<feGaussianBlur stdDeviation="2.35919"/>
<feComposite in2="hardAlpha" operator="arithmetic" k2="-1" k3="1"/>
<feColorMatrix type="matrix" values="0 0 0 0 1 0 0 0 0 1 0 0 0 0 1 0 0 0 0.25 0"/>
<feBlend mode="normal" in2="effect2_innerShadow_1_1123" result="effect3_innerShadow_1_1123"/>
</filter>
</defs>
</svg>
