<svg width="43" height="43" viewBox="0 0 43 43" fill="none" xmlns="http://www.w3.org/2000/svg">
<path d="M35.834 7.16602H7.16732C5.19648 7.16602 3.6019 8.77852 3.6019 10.7493L3.58398 32.2493C3.58398 34.2202 5.19648 35.8327 7.16732 35.8327H35.834C37.8048 35.8327 39.4173 34.2202 39.4173 32.2493V10.7493C39.4173 8.77852 37.8048 7.16602 35.834 7.16602ZM35.1173 14.7806L22.4502 22.6998C21.8769 23.0581 21.1244 23.0581 20.5511 22.6998L7.88398 14.7806C7.70433 14.6797 7.54701 14.5435 7.42153 14.3801C7.29606 14.2167 7.20505 14.0295 7.15402 13.8299C7.10298 13.6303 7.09297 13.4224 7.1246 13.2188C7.15623 13.0152 7.22884 12.8202 7.33803 12.6455C7.44722 12.4708 7.59073 12.32 7.75987 12.2024C7.92901 12.0847 8.12025 12.0026 8.32204 11.9611C8.52382 11.9195 8.73195 11.9192 8.93382 11.9604C9.13569 12.0016 9.32711 12.0833 9.49648 12.2006L21.5007 19.7077L33.5048 12.2006C33.6742 12.0833 33.8656 12.0016 34.0675 11.9604C34.2694 11.9192 34.4775 11.9195 34.6793 11.9611C34.881 12.0026 35.0723 12.0847 35.2414 12.2024C35.4106 12.32 35.5541 12.4708 35.6633 12.6455C35.7725 12.8202 35.8451 13.0152 35.8767 13.2188C35.9083 13.4224 35.8983 13.6303 35.8473 13.8299C35.7962 14.0295 35.7052 14.2167 35.5798 14.3801C35.4543 14.5435 35.297 14.6797 35.1173 14.7806Z" fill="#FF7548"/>
</svg>
