<svg width="28" height="28" viewBox="0 0 28 28" fill="none" xmlns="http://www.w3.org/2000/svg">
<path d="M26.834 11.3286C26.8917 9.65865 26.5265 8.00125 25.7723 6.51023C25.2606 5.89842 24.5505 5.48555 23.7656 5.34356C20.5195 5.0482 17.2598 4.92747 14.0006 4.98189C10.7534 4.92705 7.50554 5.04388 4.27064 5.33189C3.63109 5.44823 3.03924 5.74821 2.5673 6.19523C1.5173 7.16356 1.40064 8.82023 1.28397 10.2202C1.11368 12.7373 1.11368 15.2631 1.28397 17.7802C1.31816 18.5682 1.43548 19.3503 1.63397 20.1136C1.77464 20.7028 2.05925 21.248 2.4623 21.7002C2.93745 22.1709 3.54309 22.488 4.20064 22.6102C6.71581 22.9214 9.25021 23.0501 11.784 22.9952C15.8673 23.0536 19.449 22.9952 23.684 22.6686C24.3572 22.5524 24.9795 22.2352 25.469 21.7586C25.7952 21.4315 26.0392 21.0317 26.1806 20.5919C26.5975 19.3115 26.8024 17.9717 26.7873 16.6252C26.834 15.9719 26.834 12.0286 26.834 11.3286ZM11.364 17.3252V10.1036L18.2706 13.7319C16.334 14.8052 13.779 16.0186 11.364 17.3252Z" fill="#0068CE"/>
</svg>
