<svg width="28" height="28" viewBox="0 0 28 28" fill="none" xmlns="http://www.w3.org/2000/svg">
<path d="M16.5673 3.35352C15.1363 3.35352 13.7638 3.922 12.7519 4.93392C11.74 5.94583 11.1715 7.31828 11.1715 8.74935V11.7535H8.28398C8.13932 11.7535 8.02148 11.8702 8.02148 12.016V15.9827C8.02148 16.1273 8.13815 16.2452 8.28398 16.2452H11.1715V24.3827C11.1715 24.5273 11.2882 24.6452 11.434 24.6452H15.4007C15.5453 24.6452 15.6632 24.5285 15.6632 24.3827V16.2452H18.5763C18.6965 16.2452 18.8015 16.1635 18.8307 16.0468L19.8223 12.0802C19.8321 12.0415 19.8329 12.0011 19.8247 11.962C19.8164 11.9229 19.7994 11.8863 19.7749 11.8548C19.7504 11.8233 19.719 11.7978 19.6831 11.7802C19.6473 11.7627 19.6079 11.7535 19.568 11.7535H15.6632V8.74935C15.6632 8.63061 15.6865 8.51304 15.732 8.40334C15.7774 8.29364 15.844 8.19397 15.928 8.11001C16.0119 8.02605 16.1116 7.95945 16.2213 7.91401C16.331 7.86857 16.4486 7.84518 16.5673 7.84518H19.6006C19.7453 7.84518 19.8632 7.72852 19.8632 7.58268V3.61602C19.8632 3.47135 19.7465 3.35352 19.6006 3.35352H16.5673Z" fill="#0068CE"/>
</svg>
