<svg width="28" height="28" viewBox="0 0 28 28" fill="none" xmlns="http://www.w3.org/2000/svg">
<path d="M10.5473 25.1307C11.6673 25.469 12.799 25.6673 14.0007 25.6673C17.0948 25.6673 20.0623 24.4382 22.2502 22.2502C24.4382 20.0623 25.6673 17.0948 25.6673 14.0007C25.6673 12.4686 25.3656 10.9515 24.7792 9.53601C24.1929 8.12055 23.3336 6.83442 22.2502 5.75107C21.1669 4.66772 19.8808 3.80836 18.4653 3.22206C17.0498 2.63575 15.5327 2.33398 14.0007 2.33398C12.4686 2.33398 10.9515 2.63575 9.53601 3.22206C8.12055 3.80836 6.83442 4.66772 5.75107 5.75107C3.56315 7.939 2.33398 10.9065 2.33398 14.0007C2.33398 18.959 5.44898 23.2173 9.84732 24.8973C9.74232 23.9873 9.63732 22.4823 9.84732 21.444L11.189 15.6807C11.189 15.6807 10.8507 15.004 10.8507 13.9307C10.8507 12.3207 11.854 11.119 12.9973 11.119C14.0007 11.119 14.4673 11.854 14.4673 12.799C14.4673 13.8023 13.8023 15.2373 13.464 16.614C13.2657 17.7573 14.0707 18.7607 15.2373 18.7607C17.314 18.7607 18.924 16.544 18.924 13.4173C18.924 10.6173 16.9173 8.70398 14.0357 8.70398C10.7457 8.70398 8.80899 11.154 8.80899 13.7323C8.80899 14.7357 9.13565 15.7507 9.67232 16.4157C9.77732 16.4857 9.77732 16.579 9.74232 16.754L9.40399 18.0257C9.40399 18.224 9.27565 18.294 9.07732 18.154C7.58398 17.5007 6.72065 15.3773 6.72065 13.6623C6.72065 9.97565 9.33398 6.62732 14.374 6.62732C18.3873 6.62732 21.514 9.50899 21.514 13.3357C21.514 17.349 19.029 20.569 15.4707 20.569C14.339 20.569 13.2307 19.9623 12.834 19.2507L12.0523 22.0157C11.784 23.019 11.049 24.3607 10.5473 25.1657V25.1307Z" fill="#0068CE"/>
</svg>
