<svg width="24" height="24" viewBox="0 0 24 24" fill="none" xmlns="http://www.w3.org/2000/svg">
<path fill-rule="evenodd" clip-rule="evenodd" d="M7.25 6.63101V5.46101C7.25013 5.04203 7.40058 4.63701 7.67401 4.31955C7.94743 4.00209 8.32567 3.79326 8.74 3.73101L9.96 3.54801C11.3125 3.34585 12.6875 3.34585 14.04 3.54801L15.26 3.73101C15.6743 3.79326 16.0526 4.00209 16.326 4.31955C16.5994 4.63701 16.7499 5.04203 16.75 5.46101V6.63101L18.464 6.76901C19.1017 6.82053 19.7037 7.08437 20.1738 7.51837C20.6438 7.95236 20.9548 8.53144 21.057 9.16301C21.5227 12.0356 21.5227 14.9644 21.057 17.837C20.9548 18.4686 20.6438 19.0477 20.1738 19.4816C19.7037 19.9156 19.1017 20.1795 18.464 20.231L16.592 20.381C13.5356 20.628 10.4643 20.628 7.408 20.381L5.536 20.231C4.89829 20.1795 4.29628 19.9156 3.82621 19.4816C3.35614 19.0477 3.04516 18.4686 2.943 17.837C2.47727 14.9644 2.47727 12.0356 2.943 9.16301C3.04536 8.53162 3.35643 7.95278 3.82648 7.51898C4.29654 7.08518 4.89844 6.82148 5.536 6.77001L7.25 6.63101ZM10.183 5.03101C11.3876 4.85108 12.6123 4.85108 13.817 5.03101L15.037 5.21401C15.0962 5.22287 15.1502 5.25266 15.1893 5.29799C15.2284 5.34331 15.2499 5.40116 15.25 5.46101V6.52601C13.0851 6.40237 10.9149 6.40237 8.75 6.52601V5.46001C8.75005 5.40016 8.77158 5.34232 8.81067 5.29699C8.84975 5.25167 8.9038 5.22187 8.963 5.21301L10.183 5.03101ZM7.529 8.11301C10.505 7.87301 13.495 7.87301 16.471 8.11301L18.343 8.26501C18.6464 8.28928 18.9328 8.4146 19.1565 8.62091C19.3802 8.82722 19.5283 9.10261 19.577 9.40301C19.639 9.78767 19.6923 10.1737 19.737 10.561C17.3299 11.7458 14.6829 12.3619 12 12.3619C9.31712 12.3619 6.67009 11.7458 4.263 10.561C4.307 10.1743 4.36033 9.78834 4.423 9.40301C4.4717 9.10261 4.61976 8.82722 4.84347 8.62091C5.06719 8.4146 5.35364 8.28928 5.657 8.26501L7.529 8.11301ZM4.129 12.157C6.60088 13.2807 9.2847 13.8621 12 13.8621C14.7153 13.8621 17.3991 13.2807 19.871 12.157C19.9668 13.9756 19.8682 15.7993 19.577 17.597C19.5285 17.8976 19.3805 18.1732 19.1568 18.3797C18.9331 18.5862 18.6465 18.7117 18.343 18.736L16.471 18.886C13.495 19.126 10.505 19.126 7.529 18.886L5.657 18.736C5.3535 18.7117 5.06693 18.5862 4.8432 18.3797C4.61947 18.1732 4.4715 17.8976 4.423 17.597C4.132 15.797 4.033 13.973 4.129 12.157Z" fill="#87929B"/>
</svg>
