<svg width="15" height="15" viewBox="0 0 15 15" fill="none" xmlns="http://www.w3.org/2000/svg">
<g id="Group">
<path id="Vector" d="M10.8928 0.712865H4.10552C2.23126 0.712865 0.711871 2.23225 0.711871 4.10652V10.8938C0.711871 12.7681 2.23126 14.2875 4.10552 14.2875H10.8928C12.7671 14.2875 14.2865 12.7681 14.2865 10.8938V4.10652C14.2865 2.23225 12.7671 0.712865 10.8928 0.712865Z" stroke="#AAAAAA" stroke-width="1.4" stroke-linecap="round" stroke-linejoin="round"/>
<path id="Vector_2" d="M11.2327 3.76715H11.2394M10.2146 7.07257C10.2983 7.63744 10.2018 8.21434 9.93883 8.72121C9.67582 9.22809 9.25968 9.63912 8.7496 9.89586C8.23952 10.1526 7.66148 10.242 7.09768 10.1512C6.53389 10.0605 6.01305 9.79433 5.60926 9.39054C5.20547 8.98675 4.93928 8.46591 4.84856 7.90212C4.75784 7.33832 4.8472 6.76028 5.10394 6.2502C5.36068 5.74012 5.77172 5.32398 6.27859 5.06097C6.78546 4.79797 7.36237 4.70148 7.92724 4.78525C8.50343 4.87069 9.03686 5.13918 9.44874 5.55106C9.86062 5.96294 10.1291 6.49638 10.2146 7.07257Z" stroke="#AAAAAA" stroke-width="1.4" stroke-linecap="round" stroke-linejoin="round"/>
</g>
</svg>
