<svg width="32" height="32" viewBox="0 0 32 32" fill="none" xmlns="http://www.w3.org/2000/svg">
<path d="M20.0003 24V25C20.0003 26.0609 19.5789 27.0783 18.8287 27.8284C18.0786 28.5786 17.0612 29 16.0003 29C14.9394 29 13.922 28.5786 13.1719 27.8284C12.4217 27.0783 12.0003 26.0609 12.0003 25V24M26.7303 21.9644C25.1253 20 23.9922 19 23.9922 13.5844C23.9922 8.625 21.4597 6.85812 19.3753 6C19.0984 5.88625 18.8378 5.625 18.7534 5.34062C18.3878 4.09625 17.3628 3 16.0003 3C14.6378 3 13.6122 4.09688 13.2503 5.34188C13.1659 5.62938 12.9053 5.88625 12.6284 6C10.5416 6.85938 8.01156 8.62 8.01156 13.5844C8.00843 19 6.87531 20 5.27031 21.9644C4.60531 22.7781 5.18781 24 6.35093 24H25.6559C26.8128 24 27.3916 22.7744 26.7303 21.9644Z" stroke="#9979F6" stroke-width="2" stroke-linecap="round" stroke-linejoin="round"/>
</svg>
