<svg width="32" height="32" viewBox="0 0 32 32" fill="none" xmlns="http://www.w3.org/2000/svg">
<path d="M8.25454 29.14C8.10505 29.2472 7.9289 29.311 7.74546 29.3246C7.56202 29.3381 7.3784 29.3008 7.2148 29.2167C7.0512 29.1326 6.91396 29.0051 6.81817 28.848C6.72238 28.691 6.67176 28.5106 6.67188 28.3267V8.33333C6.67188 7.18406 7.12842 6.08186 7.94108 5.2692C8.75374 4.45655 9.85594 4 11.0052 4H21.0025C22.1518 4 23.254 4.45655 24.0667 5.2692C24.8793 6.08186 25.3359 7.18406 25.3359 8.33333V28.328C25.3359 28.512 25.2852 28.6925 25.1892 28.8496C25.0933 29.0066 24.9558 29.1342 24.7921 29.2181C24.6283 29.3021 24.4445 29.3392 24.261 29.3254C24.0774 29.3117 23.9013 29.2475 23.7519 29.14L16.0052 23.5653L8.25454 29.14ZM23.3372 8.33333C23.3372 7.71449 23.0914 7.121 22.6538 6.68342C22.2162 6.24583 21.6227 6 21.0039 6H11.0052C10.3864 6 9.79288 6.24583 9.35529 6.68342C8.91771 7.121 8.67188 7.71449 8.67188 8.33333V26.376L15.4199 21.5213C15.59 21.3989 15.7943 21.3331 16.0039 21.3331C16.2135 21.3331 16.4177 21.3989 16.5879 21.5213L23.3359 26.376L23.3372 8.33333Z" fill="#9979F6"/>
</svg>
