<svg width="21" height="21" viewBox="0 0 21 21" fill="none" xmlns="http://www.w3.org/2000/svg">
<path d="M17.2389 12.5922V17.0322C17.2387 17.6604 16.989 18.2628 16.5448 18.707C16.1006 19.1513 15.4982 19.4009 14.8699 19.4012H3.26894C2.9567 19.4011 2.64756 19.3392 2.35928 19.2193C2.071 19.0993 1.80928 18.9235 1.58914 18.7021C1.369 18.4807 1.19478 18.2179 1.07651 17.9289C0.958236 17.6399 0.898231 17.3304 0.899944 17.0182V5.43019C0.898086 5.11844 0.95812 4.80942 1.07657 4.52104C1.19501 4.23266 1.36951 3.97065 1.58996 3.75021C1.8104 3.52976 2.07241 3.35526 2.36079 3.23681C2.64917 3.11837 2.95819 3.05833 3.26994 3.06019H7.70894" stroke="#3EBA88" stroke-width="1.8" stroke-linecap="round" stroke-linejoin="round"/>
<path d="M17.2389 7.14569L13.1539 3.05969M4.98389 13.9537V11.7887C4.98589 11.4317 5.12789 11.0887 5.37889 10.8357L14.9109 1.30369C15.0374 1.1758 15.188 1.07427 15.3539 1.00497C15.5199 0.935674 15.698 0.899994 15.8779 0.899994C16.0578 0.899994 16.2358 0.935674 16.4018 1.00497C16.5678 1.07427 16.7184 1.1758 16.8449 1.30369L18.9959 3.45469C19.1238 3.58117 19.2253 3.73176 19.2946 3.89775C19.3639 4.06374 19.3996 4.24182 19.3996 4.42169C19.3996 4.60156 19.3639 4.77965 19.2946 4.94564C19.2253 5.11162 19.1238 5.26221 18.9959 5.38869L9.46389 14.9207C9.21042 15.1724 8.8681 15.3143 8.51089 15.3157H6.34589C6.16695 15.316 5.98973 15.2809 5.82436 15.2126C5.659 15.1442 5.50875 15.0439 5.38222 14.9174C5.2557 14.7908 5.15538 14.6406 5.08703 14.4752C5.01867 14.3099 4.98362 14.1326 4.98389 13.9537Z" stroke="#3EBA88" stroke-width="1.8" stroke-linecap="round" stroke-linejoin="round"/>
</svg>
