<svg width="30" height="30" viewBox="0 0 30 30" fill="none" xmlns="http://www.w3.org/2000/svg">
<path d="M13.2093 26.5346H11.34C6.55995 26.5346 4.17062 26.5346 2.68528 25.0213C1.19995 23.508 1.19995 21.0733 1.19995 16.2013C1.19995 11.3306 1.19995 8.89464 2.68528 7.38131C4.17062 5.86797 6.55995 5.86797 11.34 5.86797H16.4106C21.1906 5.86797 23.5813 5.86797 25.0666 7.38131C26.2093 8.54531 26.472 10.256 26.5333 13.2013" stroke="#837CFF" stroke-width="2.4" stroke-linecap="round"/>
<path d="M25.2233 25.2292L27.8673 27.8652M26.6046 21.8998C26.6151 21.2757 26.5013 20.6557 26.2697 20.076C26.0381 19.4963 25.6934 18.9686 25.2558 18.5235C24.8181 18.0784 24.2962 17.7249 23.7205 17.4836C23.1448 17.2423 22.5268 17.118 21.9026 17.118C21.2784 17.118 20.6604 17.2423 20.0847 17.4836C19.509 17.7249 18.9871 18.0784 18.5495 18.5235C18.1118 18.9686 17.7671 19.4963 17.5355 20.076C17.304 20.6557 17.1901 21.2757 17.2006 21.8998C17.2214 23.1332 17.7259 24.309 18.6054 25.1738C19.485 26.0387 20.6691 26.5233 21.9026 26.5233C23.1361 26.5233 24.3203 26.0387 25.1998 25.1738C26.0793 24.309 26.5838 23.1332 26.6046 21.8998Z" stroke="#837CFF" stroke-width="2.4" stroke-linecap="round" stroke-linejoin="round"/>
<path d="M19.866 5.86667L19.7326 5.45334C19.0726 3.4 18.7433 2.37334 17.958 1.78667C17.1713 1.2 16.1286 1.2 14.0393 1.2H13.6886C11.602 1.2 10.558 1.2 9.77263 1.78667C8.98597 2.37334 8.65663 3.4 7.99663 5.45334L7.86597 5.86667" stroke="#837CFF" stroke-width="2.4"/>
</svg>
