<svg width="20" height="20" viewBox="0 0 20 20" fill="none" xmlns="http://www.w3.org/2000/svg">
<path d="M18.8999 9.89791C18.9027 11.6847 18.3713 13.4315 17.3739 14.9139C16.5513 16.1409 15.4391 17.1463 14.1355 17.8412C12.8319 18.5361 11.3771 18.899 9.8999 18.8979C8.42268 18.899 6.96794 18.5361 5.66435 17.8412C4.36076 17.1463 3.24848 16.1409 2.4259 14.9139C1.64263 13.7463 1.1438 12.4115 0.969408 11.0163C0.795012 9.62123 0.949898 8.20466 1.42165 6.88019C1.8934 5.55572 2.6689 4.3602 3.68597 3.38946C4.70304 2.41872 5.9334 1.69977 7.27841 1.29025C8.62342 0.880718 10.0457 0.792002 11.4311 1.03121C12.8166 1.27042 14.1268 1.8309 15.2566 2.66773C16.3864 3.50455 17.3045 4.59443 17.9372 5.85001C18.5699 7.10559 18.8996 8.49193 18.8999 9.89791Z" stroke="#0F283C" stroke-width="1.8"/>
<path d="M11.15 6.89792C11.15 7.58792 10.59 8.14792 9.89998 8.14792V9.64792C10.6293 9.64792 11.3288 9.35819 11.8445 8.84246C12.3602 8.32674 12.65 7.62726 12.65 6.89792H11.15ZM9.89998 8.14792C9.20998 8.14792 8.64998 7.58792 8.64998 6.89792H7.14998C7.14998 7.62726 7.43971 8.32674 7.95544 8.84246C8.47116 9.35819 9.17064 9.64792 9.89998 9.64792V8.14792ZM8.64998 6.89792C8.64998 6.20792 9.20998 5.64792 9.89998 5.64792V4.14792C9.17064 4.14792 8.47116 4.43765 7.95544 4.95337C7.43971 5.4691 7.14998 6.16857 7.14998 6.89792H8.64998ZM9.89998 5.64792C10.59 5.64792 11.15 6.20792 11.15 6.89792H12.65C12.65 6.16857 12.3602 5.4691 11.8445 4.95337C11.3288 4.43765 10.6293 4.14792 9.89998 4.14792V5.64792ZM3.06598 15.7539L2.34698 15.5399L2.22998 15.9319L2.49698 16.2419L3.06598 15.7539ZM16.734 15.7539L17.304 16.2429L17.57 15.9329L17.453 15.5399L16.734 15.7539ZM6.89998 13.6479H12.9V12.1479H6.89998V13.6479ZM6.89998 12.1479C5.877 12.1476 4.88126 12.4776 4.06092 13.0888C3.24057 13.7 2.63945 14.5596 2.34698 15.5399L3.78498 15.9679C3.98523 15.2974 4.39656 14.7094 4.95779 14.2914C5.51903 13.8734 6.20019 13.6477 6.89998 13.6479V12.1479ZM9.89998 18.1479C8.7094 18.1493 7.53269 17.8923 6.45107 17.3948C5.36944 16.8972 4.40864 16.1709 3.63498 15.2659L2.49698 16.2419C3.41144 17.3109 4.54682 18.1699 5.82487 18.7577C7.10292 19.3455 8.49323 19.6493 9.89998 19.6479V18.1479ZM12.9 13.6479C14.37 13.6479 15.615 14.6259 16.015 15.9679L17.453 15.5399C17.1605 14.5596 16.5594 13.7 15.739 13.0888C14.9187 12.4776 13.923 12.1476 12.9 12.1479V13.6479ZM16.165 15.2659C15.3913 16.1709 14.4305 16.8972 13.3489 17.3948C12.2673 17.8923 11.0906 18.1493 9.89998 18.1479V19.6479C11.3067 19.6493 12.697 19.3455 13.9751 18.7577C15.2531 18.1699 16.3895 17.3119 17.304 16.2429L16.165 15.2659Z" fill="#0F283C"/>
</svg>
