<svg width="28" height="28" viewBox="0 0 28 28" fill="none" xmlns="http://www.w3.org/2000/svg">
<path d="M20.5 14C22.2239 14 23.8772 14.6848 25.0962 15.9038C26.3152 17.1228 27 18.7761 27 20.5C27 22.2239 26.3152 23.8772 25.0962 25.0962C23.8772 26.3152 22.2239 27 20.5 27C18.7761 27 17.1228 26.3152 15.9038 25.0962C14.6848 23.8772 14 22.2239 14 20.5C14 18.7761 14.6848 17.1228 15.9038 15.9038C17.1228 14.6848 18.7761 14 20.5 14ZM21.25 3C22.2446 3 23.1984 3.39509 23.9017 4.09835C24.6049 4.80161 25 5.75544 25 6.75V14.5C24.5355 14.1516 24.0321 13.8583 23.5 13.626V6.75C23.5 6.15326 23.2629 5.58097 22.841 5.15901C22.419 4.73705 21.8467 4.5 21.25 4.5H6.75C6.15326 4.5 5.58097 4.73705 5.15901 5.15901C4.73705 5.58097 4.5 6.15326 4.5 6.75V21.25C4.5 21.8467 4.73705 22.419 5.15901 22.841C5.58097 23.2629 6.15326 23.5 6.75 23.5H13.626C13.8583 24.0321 14.1516 24.5355 14.5 25H6.75C5.75544 25 4.80161 24.6049 4.09835 23.9017C3.39509 23.1984 3 22.2446 3 21.25V6.75C3 5.75544 3.39509 4.80161 4.09835 4.09835C4.80161 3.39509 5.75544 3 6.75 3H21.25ZM20.5 16C20.3674 16 20.2402 16.0527 20.1464 16.1464C20.0527 16.2402 20 16.3674 20 16.5V20H16.5C16.3674 20 16.2402 20.0527 16.1464 20.1464C16.0527 20.2402 16 20.3674 16 20.5C16 20.6326 16.0527 20.7598 16.1464 20.8536C16.2402 20.9473 16.3674 21 16.5 21H20V24.5C20 24.6326 20.0527 24.7598 20.1464 24.8536C20.2402 24.9473 20.3674 25 20.5 25C20.6326 25 20.7598 24.9473 20.8536 24.8536C20.9473 24.7598 21 24.6326 21 24.5V21H24.5C24.6326 21 24.7598 20.9473 24.8536 20.8536C24.9473 20.7598 25 20.6326 25 20.5C25 20.3674 24.9473 20.2402 24.8536 20.1464C24.7598 20.0527 24.6326 20 24.5 20H21V16.5C21 16.3674 20.9473 16.2402 20.8536 16.1464C20.7598 16.0527 20.6326 16 20.5 16ZM13.019 20.001C13.0063 20.1657 13 20.332 13 20.5C13.0013 20.84 13.024 21.1737 13.068 21.501H6.75C6.55109 21.501 6.36032 21.422 6.21967 21.2813C6.07902 21.1407 6 20.9499 6 20.751C6 20.5521 6.07902 20.3613 6.21967 20.2207C6.36032 20.08 6.55109 20.001 6.75 20.001H13.019ZM14.502 15.998C14.155 16.459 13.862 16.963 13.627 17.498H6.75C6.55109 17.498 6.36032 17.419 6.21967 17.2783C6.07902 17.1377 6 16.9469 6 16.748C6 16.5491 6.07902 16.3583 6.21967 16.2177C6.36032 16.077 6.55109 15.998 6.75 15.998H14.502ZM11.502 6C11.6493 6.00016 11.7932 6.04368 11.9159 6.12513C12.0387 6.20657 12.1347 6.32235 12.192 6.458L14.94 12.961C14.9836 13.0524 15.0083 13.1518 15.0125 13.253C15.0167 13.3543 15.0003 13.4553 14.9644 13.5501C14.9284 13.6448 14.8737 13.7313 14.8034 13.8043C14.7331 13.8773 14.6487 13.9352 14.5554 13.9747C14.4621 14.0142 14.3618 14.0344 14.2604 14.034C14.1591 14.0337 14.0589 14.0128 13.9659 13.9726C13.8728 13.9325 13.7889 13.8739 13.7192 13.8004C13.6494 13.7269 13.5953 13.64 13.56 13.545L13.118 12.502H9.882L9.44 13.545C9.40423 13.6394 9.34978 13.7256 9.27991 13.7984C9.21004 13.8713 9.12618 13.9293 9.03336 13.9689C8.94054 14.0086 8.84068 14.0291 8.73974 14.0292C8.6388 14.0294 8.53888 14.0092 8.44594 13.9698C8.35301 13.9304 8.26899 13.8726 8.19891 13.8C8.12883 13.7273 8.07413 13.6413 8.03809 13.547C8.00205 13.4527 7.98542 13.3521 7.98918 13.2513C7.99295 13.1504 8.01704 13.0513 8.06 12.96L10.81 6.457C10.8677 6.32106 10.9642 6.20518 11.0875 6.12388C11.2108 6.04258 11.3553 5.99949 11.503 6M17.751 6C17.9499 6 18.1407 6.07902 18.2813 6.21967C18.422 6.36032 18.501 6.55109 18.501 6.75V8H19.751C19.9499 8 20.1407 8.07902 20.2813 8.21967C20.422 8.36032 20.501 8.55109 20.501 8.75C20.501 8.94891 20.422 9.13968 20.2813 9.28033C20.1407 9.42098 19.9499 9.5 19.751 9.5H18.5V10.748C18.5 10.9469 18.421 11.1377 18.2803 11.2783C18.1397 11.419 17.9489 11.498 17.75 11.498C17.5511 11.498 17.3603 11.419 17.2197 11.2783C17.079 11.1377 17 10.9469 17 10.748V9.5H15.752C15.5531 9.5 15.3623 9.42098 15.2217 9.28033C15.081 9.13968 15.002 8.94891 15.002 8.75C15.002 8.55109 15.081 8.36032 15.2217 8.21967C15.3623 8.07902 15.5531 8 15.752 8H17V6.75C17 6.55109 17.079 6.36032 17.2197 6.21967C17.3603 6.07902 17.5521 6 17.751 6ZM10.517 11.002H12.484L11.501 8.675L10.517 11.002Z" fill="#0F283C"/>
</svg>
