<svg width="119" height="119" viewBox="0 0 119 119" fill="none" xmlns="http://www.w3.org/2000/svg">
<path d="M0.5 98.5298C29.7369 65.8255 62.1995 37.6647 99.8324 12.3655C105.389 8.62965 120.815 -3.39134 117.012 1.76626C112.313 8.14024 106.839 14.1121 102.123 20.4976C81.0893 48.9782 62.8996 79.3947 44.8559 109.403C44.1998 110.495 38.2915 119.436 44.6477 114.886C52.0988 109.551 58.7739 103.285 65.7845 97.5248C73.4578 91.2196 81.2622 85.0459 88.7954 78.6106C89.6785 77.8562 92.3546 75.8627 91.919 76.8745C87.764 86.5266 82.6563 95.9262 77.9668 105.383C76.0036 109.341 73.5826 113.598 72.3441 117.809C71.7738 119.749 75.5607 114.965 77.2378 113.606C83.4979 108.535 89.9344 103.498 97.0211 99.3522" stroke="white" stroke-linecap="round"/>
</svg>
