<svg width="120" height="120" viewBox="0 0 120 120" fill="none" xmlns="http://www.w3.org/2000/svg">
<g clip-path="url(#clip0_0_316)">
<path d="M1.44531 99.3072C30.6822 66.6028 63.1448 38.442 100.778 13.1428C106.335 9.40699 121.761 -2.614 117.958 2.5436C113.258 8.91758 107.784 14.8895 103.068 21.275C82.0346 49.7556 63.8449 80.172 45.8012 110.181C45.1451 111.272 39.2368 120.213 45.593 115.663C53.0442 110.329 59.7192 104.063 66.7298 98.3021C74.4031 91.997 82.2075 85.8232 89.7407 79.3879C90.6238 78.6336 93.3 76.64 92.8643 77.6519C88.7093 87.304 83.6016 96.7035 78.9121 106.16C76.9489 110.119 74.5279 114.375 73.2895 118.587C72.7191 120.526 76.506 115.742 78.1831 114.384C84.4432 109.313 90.8797 104.276 97.9664 100.13" stroke="white" stroke-linecap="round"/>
</g>
<defs>
<clipPath id="clip0_0_316">
<rect width="120" height="120" fill="white"/>
</clipPath>
</defs>
</svg>
