<svg width="158" height="67" viewBox="0 0 158 67" fill="none" xmlns="http://www.w3.org/2000/svg">
<path d="M7.54784 -397.14L6.71472 -397.83L-690.529 673.641L-689.696 674.331L7.54784 -397.14Z" fill="white"/>
<path d="M12.3077 -393.194L11.4746 -393.885L-685.769 677.586L-684.936 678.276L12.3077 -393.194Z" fill="white"/>
<path d="M17.0675 -389.251L16.2344 -389.941L-681.01 681.529L-680.177 682.22L17.0675 -389.251Z" fill="white"/>
<path d="M21.8273 -385.306L20.9941 -385.996L-676.25 685.475L-675.417 686.165L21.8273 -385.306Z" fill="white"/>
<path d="M26.5909 -381.358L25.7578 -382.049L-671.486 689.422L-670.653 690.112L26.5909 -381.358Z" fill="white"/>
<path d="M2.78819 -401.085L1.95508 -401.775L-695.289 669.695L-694.456 670.386L2.78819 -401.085Z" fill="white"/>
<path d="M31.3507 -377.415L30.5176 -378.105L-666.726 693.365L-665.893 694.056L31.3507 -377.415Z" fill="white"/>
<path d="M36.1105 -373.47L35.2773 -374.16L-661.967 697.311L-661.134 698.001L36.1105 -373.47Z" fill="white"/>
<path d="M64.673 -349.8L63.8398 -350.49L-633.404 720.98L-632.571 721.671L64.673 -349.8Z" fill="white"/>
<path d="M40.8702 -369.524L40.0371 -370.215L-657.207 701.256L-656.374 701.946L40.8702 -369.524Z" fill="white"/>
<path d="M69.4366 -345.855L68.6035 -346.545L-628.641 724.926L-627.807 725.616L69.4366 -345.855Z" fill="white"/>
<path d="M45.6339 -365.579L44.8008 -366.27L-652.443 705.201L-651.61 705.892L45.6339 -365.579Z" fill="white"/>
<path d="M74.1964 -341.907L73.3633 -342.598L-623.881 728.873L-623.048 729.563L74.1964 -341.907Z" fill="white"/>
<path d="M50.3937 -361.634L49.5605 -362.324L-647.684 709.146L-646.85 709.837L50.3937 -361.634Z" fill="white"/>
<path d="M78.9581 -337.964L78.125 -338.654L-619.119 732.816L-618.286 733.507L78.9581 -337.964Z" fill="white"/>
<path d="M55.1534 -357.69L54.3203 -358.381L-642.924 713.09L-642.091 713.78L55.1534 -357.69Z" fill="white"/>
<path d="M83.7179 -334.019L82.8848 -334.709L-614.359 736.762L-613.526 737.452L83.7179 -334.019Z" fill="white"/>
<path d="M59.9132 -353.745L59.0801 -354.436L-638.164 717.035L-637.331 717.726L59.9132 -353.745Z" fill="white"/>
<path d="M88.4776 -330.073L87.6445 -330.764L-609.6 740.707L-608.766 741.397L88.4776 -330.073Z" fill="white"/>
<path d="M92.6202 -326.642L91.7871 -327.332L-605.457 744.139L-604.624 744.829L92.6202 -326.642Z" fill="white"/>
<path d="M121.185 -302.97L120.352 -303.66L-576.893 767.811L-576.059 768.501L121.185 -302.97Z" fill="white"/>
<path d="M97.3819 -322.696L96.5488 -323.387L-600.695 748.084L-599.862 748.774L97.3819 -322.696Z" fill="white"/>
<path d="M125.946 -299.024L125.113 -299.715L-572.131 771.756L-571.298 772.446L125.946 -299.024Z" fill="white"/>
<path d="M102.142 -318.751L101.309 -319.441L-595.935 752.029L-595.102 752.72L102.142 -318.751Z" fill="white"/>
<path d="M130.706 -295.079L129.873 -295.77L-567.371 775.701L-566.538 776.392L130.706 -295.079Z" fill="white"/>
<path d="M106.903 -314.806L106.07 -315.496L-591.174 755.975L-590.341 756.665L106.903 -314.806Z" fill="white"/>
<path d="M135.468 -291.136L134.635 -291.826L-562.609 779.644L-561.776 780.335L135.468 -291.136Z" fill="white"/>
<path d="M111.665 -310.86L110.832 -311.551L-586.412 759.92L-585.579 760.61L111.665 -310.86Z" fill="white"/>
<path d="M140.228 -287.19L139.394 -287.881L-557.85 783.59L-557.016 784.28L140.228 -287.19Z" fill="white"/>
<path d="M116.425 -306.915L115.592 -307.605L-581.652 763.865L-580.819 764.556L116.425 -306.915Z" fill="white"/>
<path d="M144.987 -283.245L144.154 -283.936L-553.09 787.535L-552.257 788.226L144.987 -283.245Z" fill="white"/>
<path d="M149.751 -279.3L148.918 -279.99L-548.326 791.48L-547.493 792.171L149.751 -279.3Z" fill="white"/>
<path d="M178.314 -255.628L177.48 -256.318L-519.764 815.152L-518.93 815.843L178.314 -255.628Z" fill="white"/>
<path d="M154.509 -275.355L153.676 -276.045L-543.568 795.426L-542.735 796.116L154.509 -275.355Z" fill="white"/>
<path d="M183.073 -251.685L182.24 -252.375L-515.004 819.096L-514.171 819.786L183.073 -251.685Z" fill="white"/>
<path d="M159.271 -271.409L158.438 -272.1L-538.807 799.371L-537.973 800.061L159.271 -271.409Z" fill="white"/>
<path d="M187.833 -247.739L187 -248.43L-510.244 823.041L-509.411 823.731L187.833 -247.739Z" fill="white"/>
<path d="M164.03 -267.466L163.197 -268.156L-534.047 803.314L-533.214 804.005L164.03 -267.466Z" fill="white"/>
<path d="M192.597 -243.794L191.764 -244.484L-505.48 826.986L-504.647 827.677L192.597 -243.794Z" fill="white"/>
<path d="M168.79 -263.521L167.957 -264.211L-529.287 807.26L-528.454 807.95L168.79 -263.521Z" fill="white"/>
<path d="M197.357 -239.849L196.523 -240.539L-500.721 830.932L-499.888 831.622L197.357 -239.849Z" fill="white"/>
<path d="M173.554 -259.573L172.721 -260.264L-524.523 811.207L-523.69 811.897L173.554 -259.573Z" fill="white"/>
<path d="M202.116 -235.903L201.283 -236.594L-495.961 834.877L-495.128 835.567L202.116 -235.903Z" fill="white"/>
<path d="M206.878 -231.958L206.045 -232.648L-491.199 838.822L-490.366 839.513L206.878 -231.958Z" fill="white"/>
<path d="M235.441 -208.288L234.607 -208.979L-462.637 862.492L-461.804 863.183L235.441 -208.288Z" fill="white"/>
<path d="M211.638 -228.015L210.805 -228.705L-486.439 842.766L-485.606 843.456L211.638 -228.015Z" fill="white"/>
<path d="M240.202 -204.343L239.369 -205.033L-457.875 866.437L-457.042 867.128L240.202 -204.343Z" fill="white"/>
<path d="M216.4 -224.067L215.566 -224.758L-481.678 846.713L-480.845 847.403L216.4 -224.067Z" fill="white"/>
<path d="M244.964 -200.398L244.131 -201.088L-453.113 870.383L-452.28 871.073L244.964 -200.398Z" fill="white"/>
<path d="M221.159 -220.124L220.326 -220.814L-476.918 850.656L-476.085 851.347L221.159 -220.124Z" fill="white"/>
<path d="M249.722 -196.454L248.889 -197.145L-448.355 874.326L-447.522 875.017L249.722 -196.454Z" fill="white"/>
<path d="M225.919 -216.179L225.086 -216.869L-472.158 854.602L-471.325 855.292L225.919 -216.179Z" fill="white"/>
<path d="M254.484 -192.507L253.65 -193.197L-443.594 878.273L-442.761 878.964L254.484 -192.507Z" fill="white"/>
<path d="M230.681 -212.233L229.848 -212.924L-467.396 858.547L-466.563 859.237L230.681 -212.233Z" fill="white"/>
<path d="M259.245 -188.564L258.412 -189.254L-438.832 882.217L-437.999 882.907L259.245 -188.564Z" fill="white"/>
<path d="M264.007 -184.616L263.174 -185.307L-434.07 886.164L-433.237 886.854L264.007 -184.616Z" fill="white"/>
<path d="M292.567 -160.946L291.734 -161.637L-405.51 909.834L-404.677 910.524L292.567 -160.946Z" fill="white"/>
<path d="M268.765 -180.673L267.932 -181.363L-429.312 890.107L-428.479 890.798L268.765 -180.673Z" fill="white"/>
<path d="M297.329 -157.003L296.496 -157.693L-400.748 913.777L-399.915 914.468L297.329 -157.003Z" fill="white"/>
<path d="M273.525 -176.728L272.691 -177.418L-424.553 894.053L-423.72 894.743L273.525 -176.728Z" fill="white"/>
<path d="M302.091 -153.056L301.258 -153.746L-395.986 917.725L-395.153 918.415L302.091 -153.056Z" fill="white"/>
<path d="M278.286 -172.782L277.453 -173.473L-419.791 897.998L-418.958 898.688L278.286 -172.782Z" fill="white"/>
<path d="M306.853 -149.112L306.02 -149.803L-391.225 921.668L-390.391 922.358L306.853 -149.112Z" fill="white"/>
<path d="M283.048 -168.837L282.215 -169.527L-415.029 901.943L-414.196 902.634L283.048 -168.837Z" fill="white"/>
<path d="M311.612 -145.167L310.779 -145.857L-386.465 925.613L-385.632 926.304L311.612 -145.167Z" fill="white"/>
<path d="M287.81 -164.892L286.977 -165.582L-410.268 905.889L-409.434 906.579L287.81 -164.892Z" fill="white"/>
<path d="M316.372 -141.222L315.539 -141.912L-381.705 929.559L-380.872 930.249L316.372 -141.222Z" fill="white"/>
<path d="M321.132 -137.276L320.299 -137.967L-376.945 933.504L-376.112 934.194L321.132 -137.276Z" fill="white"/>
<path d="M349.698 -113.606L348.865 -114.297L-348.379 957.174L-347.546 957.864L349.698 -113.606Z" fill="white"/>
<path d="M325.894 -133.331L325.061 -134.021L-372.184 937.449L-371.35 938.14L325.894 -133.331Z" fill="white"/>
<path d="M354.458 -109.661L353.625 -110.352L-343.619 961.119L-342.786 961.809L354.458 -109.661Z" fill="white"/>
<path d="M330.655 -129.386L329.822 -130.076L-367.422 941.394L-366.589 942.085L330.655 -129.386Z" fill="white"/>
<path d="M359.218 -105.716L358.385 -106.406L-338.859 965.064L-338.026 965.755L359.218 -105.716Z" fill="white"/>
<path d="M335.415 -125.441L334.582 -126.131L-362.662 945.34L-361.829 946.03L335.415 -125.441Z" fill="white"/>
<path d="M363.978 -101.771L363.145 -102.461L-334.1 969.01L-333.266 969.7L363.978 -101.771Z" fill="white"/>
<path d="M340.175 -121.495L339.342 -122.186L-357.902 949.285L-357.069 949.976L340.175 -121.495Z" fill="white"/>
<path d="M368.741 -97.8252L367.908 -98.5156L-329.336 972.955L-328.503 973.645L368.741 -97.8252Z" fill="white"/>
<path d="M344.935 -117.552L344.102 -118.242L-353.143 953.228L-352.309 953.919L344.935 -117.552Z" fill="white"/>
<path d="M373.501 -93.8799L372.668 -94.5703L-324.576 976.9L-323.743 977.591L373.501 -93.8799Z" fill="white"/>
<path d="M378.261 -89.9346L377.428 -90.625L-319.816 980.846L-318.983 981.536L378.261 -89.9346Z" fill="white"/>
<path d="M406.823 -66.2647L405.99 -66.9551L-291.254 1004.52L-290.421 1005.21L406.823 -66.2647Z" fill="white"/>
<path d="M383.021 -85.9913L382.188 -86.6816L-315.057 984.789L-314.223 985.479L383.021 -85.9913Z" fill="white"/>
<path d="M411.583 -62.3194L410.75 -63.0098L-286.494 1008.46L-285.661 1009.15L411.583 -62.3194Z" fill="white"/>
<path d="M387.78 -82.0459L386.947 -82.7363L-310.297 988.734L-309.464 989.425L387.78 -82.0459Z" fill="white"/>
<path d="M416.349 -58.3741L415.516 -59.0645L-281.728 1012.41L-280.895 1013.1L416.349 -58.3741Z" fill="white"/>
<path d="M392.544 -78.1006L391.711 -78.791L-305.533 992.68L-304.7 993.37L392.544 -78.1006Z" fill="white"/>
<path d="M421.107 -54.4288L420.273 -55.1191L-276.971 1016.35L-276.138 1017.04L421.107 -54.4288Z" fill="white"/>
<path d="M397.304 -74.1553L396.471 -74.8457L-300.773 996.625L-299.94 997.315L397.304 -74.1553Z" fill="white"/>
<path d="M425.868 -50.4854L425.035 -51.1758L-272.209 1020.29L-271.376 1020.99L425.868 -50.4854Z" fill="white"/>
<path d="M402.064 -70.21L401.23 -70.9004L-296.014 1000.57L-295.18 1001.26L402.064 -70.21Z" fill="white"/>
<path d="M430.628 -46.5401L429.795 -47.2305L-267.449 1024.24L-266.616 1024.93L430.628 -46.5401Z" fill="white"/>
<path d="M435.39 -42.5948L434.557 -43.2852L-262.687 1028.19L-261.854 1028.88L435.39 -42.5948Z" fill="white"/>
<path d="M463.954 -18.9248L463.121 -19.6152L-234.123 1051.86L-233.29 1052.55L463.954 -18.9248Z" fill="white"/>
<path d="M440.151 -38.6495L439.318 -39.3398L-257.926 1032.13L-257.093 1032.82L440.151 -38.6495Z" fill="white"/>
<path d="M468.714 -14.9793L467.881 -15.6697L-229.363 1055.8L-228.53 1056.49L468.714 -14.9793Z" fill="white"/>
<path d="M444.909 -34.7041L444.076 -35.3945L-253.168 1036.08L-252.335 1036.77L444.909 -34.7041Z" fill="white"/>
<path d="M473.474 -11.0342L472.641 -11.7246L-224.603 1059.75L-223.77 1060.44L473.474 -11.0342Z" fill="white"/>
<path d="M449.671 -30.7588L448.838 -31.4492L-248.406 1040.02L-247.573 1040.71L449.671 -30.7588Z" fill="white"/>
<path d="M478.235 -7.08891L477.402 -7.7793L-219.842 1063.69L-219.009 1064.38L478.235 -7.08891Z" fill="white"/>
<path d="M454.431 -26.8135L453.598 -27.5039L-243.646 1043.97L-242.813 1044.66L454.431 -26.8135Z" fill="white"/>
<path d="M482.997 -3.14359L482.164 -3.83398L-215.08 1067.64L-214.247 1068.33L482.997 -3.14359Z" fill="white"/>
<path d="M459.194 -22.8702L458.361 -23.5605L-238.883 1047.91L-238.05 1048.6L459.194 -22.8702Z" fill="white"/>
<path d="M487.757 0.801719L486.924 0.111328L-210.32 1071.58L-209.487 1072.27L487.757 0.801719Z" fill="white"/>
<path d="M492.517 4.74703L491.684 4.05664L-205.56 1075.53L-204.727 1076.22L492.517 4.74703Z" fill="white"/>
<path d="M521.079 28.417L520.246 27.7266L-176.998 1099.2L-176.165 1099.89L521.079 28.417Z" fill="white"/>
<path d="M497.276 8.69234L496.443 8.00195L-200.801 1079.47L-199.968 1080.16L497.276 8.69234Z" fill="white"/>
<path d="M525.843 32.3623L525.01 31.6719L-172.234 1103.14L-171.401 1103.83L525.843 32.3623Z" fill="white"/>
<path d="M502.038 12.6377L501.205 11.9473L-196.039 1083.42L-195.206 1084.11L502.038 12.6377Z" fill="white"/>
<path d="M530.603 36.3076L529.77 35.6172L-167.475 1107.09L-166.641 1107.78L530.603 36.3076Z" fill="white"/>
<path d="M506.8 16.581L505.967 15.8906L-191.277 1087.36L-190.444 1088.05L506.8 16.581Z" fill="white"/>
<path d="M535.362 40.2529L534.529 39.5625L-162.715 1111.03L-161.882 1111.72L535.362 40.2529Z" fill="white"/>
<path d="M511.56 20.5263L510.727 19.8359L-186.518 1091.31L-185.684 1092L511.56 20.5263Z" fill="white"/>
<path d="M540.122 44.1982L539.289 43.5078L-157.955 1114.98L-157.122 1115.67L540.122 44.1982Z" fill="white"/>
<path d="M516.317 24.4716L515.484 23.7812L-181.76 1095.25L-180.927 1095.94L516.317 24.4716Z" fill="white"/>
<path d="M544.886 48.1435L544.053 47.4531L-153.191 1118.92L-152.358 1119.61L544.886 48.1435Z" fill="white"/>
</svg>
