<svg width="24" height="24" viewBox="0 0 24 24" fill="none" xmlns="http://www.w3.org/2000/svg">
<path fill-rule="evenodd" clip-rule="evenodd" d="M7.25004 6.62915V5.45915C7.25018 5.04017 7.40063 4.63515 7.67405 4.31769C7.94747 4.00022 8.32571 3.79139 8.74004 3.72915L9.96004 3.54615C11.3125 3.34399 12.6876 3.34399 14.04 3.54615L15.26 3.72915C15.6744 3.79139 16.0526 4.00022 16.326 4.31769C16.5995 4.63515 16.7499 5.04017 16.75 5.45915V6.62915L18.464 6.76715C19.1017 6.81866 19.7038 7.08251 20.1738 7.51651C20.6439 7.9505 20.9549 8.52958 21.057 9.16115C21.5228 12.0337 21.5228 14.9626 21.057 17.8351C20.9549 18.4667 20.6439 19.0458 20.1738 19.4798C19.7038 19.9138 19.1017 20.1776 18.464 20.2291L16.592 20.3791C13.5357 20.6262 10.4644 20.6262 7.40804 20.3791L5.53604 20.2291C4.89834 20.1776 4.29633 19.9138 3.82626 19.4798C3.35619 19.0458 3.04521 18.4667 2.94304 17.8351C2.47732 14.9626 2.47732 12.0337 2.94304 9.16115C3.04541 8.52976 3.35648 7.95091 3.82653 7.51712C4.29658 7.08332 4.89848 6.81962 5.53604 6.76815L7.25004 6.62915ZM10.183 5.02915C11.3877 4.84922 12.6124 4.84922 13.817 5.02915L15.037 5.21215C15.0962 5.221 15.1503 5.2508 15.1894 5.29613C15.2285 5.34145 15.25 5.3993 15.25 5.45915V6.52415C13.0851 6.40051 10.9149 6.40051 8.75004 6.52415V5.45815C8.7501 5.3983 8.77163 5.34045 8.81071 5.29513C8.8498 5.2498 8.90385 5.22 8.96304 5.21115L10.183 5.02915ZM7.52904 8.11115C10.505 7.87115 13.495 7.87115 16.471 8.11115L18.343 8.26315C18.6464 8.28742 18.9328 8.41273 19.1566 8.61905C19.3803 8.82536 19.5283 9.10074 19.577 9.40115C19.639 9.78581 19.6924 10.1718 19.737 10.5591C17.3299 11.7439 14.6829 12.3601 12 12.3601C9.31717 12.3601 6.67013 11.7439 4.26304 10.5591C4.30704 10.1725 4.36037 9.78648 4.42304 9.40115C4.47175 9.10074 4.6198 8.82536 4.84352 8.61905C5.06724 8.41273 5.35369 8.28742 5.65704 8.26315L7.52904 8.11115ZM4.12904 12.1551C6.60092 13.2788 9.28475 13.8602 12 13.8602C14.7153 13.8602 17.3992 13.2788 19.871 12.1551C19.9668 13.9738 19.8683 15.7974 19.577 17.5951C19.5285 17.8957 19.3806 18.1713 19.1568 18.3779C18.9331 18.5844 18.6465 18.7098 18.343 18.7341L16.471 18.8841C13.495 19.1241 10.505 19.1241 7.52904 18.8841L5.65704 18.7341C5.35354 18.7098 5.06698 18.5844 4.84325 18.3779C4.61951 18.1713 4.47154 17.8957 4.42304 17.5951C4.13204 15.7951 4.03304 13.9711 4.12904 12.1551Z" fill="#87929B"/>
</svg>
