<svg width="24" height="24" viewBox="0 0 24 24" fill="none" xmlns="http://www.w3.org/2000/svg">
<g clip-path="url(#clip0_46_3022)">
<path d="M0.75 23.2501H23.25M17.931 23.2501H6.069L4.527 16.2811C4.49313 16.13 4.49038 15.9737 4.51892 15.8215C4.54746 15.6694 4.60669 15.5246 4.693 15.3961C4.77128 15.2757 4.87781 15.1764 5.00331 15.1067C5.12881 15.0369 5.26946 14.999 5.413 14.9961H18.587C18.7305 14.999 18.8712 15.0369 18.9967 15.1067C19.1222 15.1764 19.2287 15.2757 19.307 15.3961C19.3933 15.5246 19.4525 15.6694 19.4811 15.8215C19.5096 15.9737 19.5069 16.13 19.473 16.2811L17.931 23.2501Z" stroke="black" stroke-width="1.5" stroke-linecap="round" stroke-linejoin="round"/>
<path d="M8.44531 2.78125C9.08418 3.44373 9.85 3.97068 10.697 4.33063C11.5441 4.69058 12.455 4.87615 13.3753 4.87625C14.3083 4.87625 15.2313 4.68625 16.0883 4.31825M10.5003 18.7513C10.5003 19.1491 10.6583 19.5306 10.9397 19.8119C11.221 20.0932 11.6025 20.2512 12.0003 20.2512C12.3981 20.2512 12.7797 20.0932 13.061 19.8119C13.3423 19.5306 13.5003 19.1491 13.5003 18.7513C13.5003 18.3534 13.3423 17.9719 13.061 17.6906C12.7797 17.4093 12.3981 17.2513 12.0003 17.2513C11.6025 17.2513 11.221 17.4093 10.9397 17.6906C10.6583 17.9719 10.5003 18.3534 10.5003 18.7513Z" stroke="black" stroke-width="1.5" stroke-linecap="round" stroke-linejoin="round"/>
<path d="M17 12.75C16.3737 12.0418 15.604 11.4748 14.742 11.0864C13.8801 10.698 12.9454 10.4972 12 10.4972C11.0546 10.4972 10.1199 10.698 9.25796 11.0864C8.39598 11.4748 7.62634 12.0418 7 12.75M7.875 4.875C7.875 5.96902 8.3096 7.01823 9.08318 7.79182C9.85677 8.5654 10.906 9 12 9C13.094 9 14.1432 8.5654 14.9168 7.79182C15.6904 7.01823 16.125 5.96902 16.125 4.875C16.125 3.78098 15.6904 2.73177 14.9168 1.95818C14.1432 1.1846 13.094 0.75 12 0.75C10.906 0.75 9.85677 1.1846 9.08318 1.95818C8.3096 2.73177 7.875 3.78098 7.875 4.875Z" stroke="black" stroke-width="1.5" stroke-linecap="round" stroke-linejoin="round"/>
</g>
<defs>
<clipPath id="clip0_46_3022">
<rect width="24" height="24" fill="white"/>
</clipPath>
</defs>
</svg>
