<svg width="24" height="24" viewBox="0 0 24 24" fill="none" xmlns="http://www.w3.org/2000/svg">
<path d="M21 10V7.5H3V20.5H10M15.5 7.5V3.5H8.5V7.5" stroke="#879AB5" stroke-width="2" stroke-linecap="square"/>
<path d="M18 16.752V18L19 19M18 22.5C16.8065 22.5 15.6619 22.0259 14.818 21.182C13.9741 20.3381 13.5 19.1935 13.5 18C13.5 16.8065 13.9741 15.6619 14.818 14.818C15.6619 13.9741 16.8065 13.5 18 13.5C19.1935 13.5 20.3381 13.9741 21.182 14.818C22.0259 15.6619 22.5 16.8065 22.5 18C22.5 19.1935 22.0259 20.3381 21.182 21.182C20.3381 22.0259 19.1935 22.5 18 22.5Z" stroke="#879AB5" stroke-width="2" stroke-linecap="square"/>
</svg>
