<svg width="11" height="19" viewBox="0 0 11 19" fill="none" xmlns="http://www.w3.org/2000/svg">
<path d="M4.85969 18.7984V-0.00156355H6.13969V18.7984H4.85969ZM5.35969 16.5584C4.29302 16.5584 3.27302 16.3984 2.29969 16.0784C1.32635 15.7451 0.559688 15.3184 -0.000312477 14.7984L0.739688 13.2384C1.27302 13.7051 1.95302 14.0918 2.77969 14.3984C3.60635 14.7051 4.46635 14.8584 5.35969 14.8584C6.17302 14.8584 6.83302 14.7651 7.33969 14.5784C7.84635 14.3918 8.21969 14.1384 8.45969 13.8184C8.69969 13.4851 8.81969 13.1118 8.81969 12.6984C8.81969 12.2184 8.65969 11.8318 8.33969 11.5384C8.03302 11.2451 7.62635 11.0118 7.11969 10.8384C6.62635 10.6518 6.07969 10.4918 5.47969 10.3584C4.87969 10.2251 4.27302 10.0718 3.65969 9.89844C3.05969 9.71177 2.50635 9.47844 1.99969 9.19844C1.50635 8.91844 1.10635 8.5451 0.799688 8.07844C0.493021 7.59844 0.339688 6.9851 0.339688 6.23844C0.339688 5.51844 0.526354 4.85844 0.899688 4.25844C1.28635 3.6451 1.87302 3.15844 2.65969 2.79844C3.45969 2.4251 4.47302 2.23844 5.69969 2.23844C6.51302 2.23844 7.31969 2.3451 8.11969 2.55844C8.91969 2.77177 9.61302 3.07844 10.1997 3.47844L9.53969 5.07844C8.93969 4.67844 8.30635 4.39177 7.63969 4.21844C6.97302 4.03177 6.32635 3.93844 5.69969 3.93844C4.91302 3.93844 4.26635 4.03844 3.75969 4.23844C3.25302 4.43844 2.87969 4.7051 2.63969 5.03844C2.41302 5.37177 2.29969 5.7451 2.29969 6.15844C2.29969 6.65177 2.45302 7.0451 2.75969 7.33844C3.07969 7.63177 3.48635 7.8651 3.97969 8.03844C4.48635 8.21177 5.03969 8.37177 5.63969 8.51844C6.23969 8.65177 6.83969 8.8051 7.43969 8.97844C8.05302 9.15177 8.60635 9.37844 9.09969 9.65844C9.60635 9.93844 10.013 10.3118 10.3197 10.7784C10.6264 11.2451 10.7797 11.8451 10.7797 12.5784C10.7797 13.2851 10.5864 13.9451 10.1997 14.5584C9.81302 15.1584 9.21302 15.6451 8.39969 16.0184C7.59969 16.3784 6.58635 16.5584 5.35969 16.5584Z" fill="#8792B5"/>
</svg>
