<svg width="24" height="24" viewBox="0 0 24 24" fill="none" xmlns="http://www.w3.org/2000/svg">
<g clip-path="url(#clip0_639_1617)">
<path d="M1.80859 3.37006C1.80859 4.02143 2.06735 4.64613 2.52794 5.10672C2.98853 5.56731 3.61322 5.82606 4.26459 5.82606C4.91597 5.82606 5.54066 5.56731 6.00125 5.10672C6.46184 4.64613 6.72059 4.02143 6.72059 3.37006C6.72059 2.71869 6.46184 2.094 6.00125 1.63341C5.54066 1.17282 4.91597 0.914063 4.26459 0.914062C3.61322 0.914063 2.98853 1.17282 2.52794 1.63341C2.06735 2.094 1.80859 2.71869 1.80859 3.37006Z" stroke="#879AB5" stroke-width="1.5" stroke-miterlimit="10"/>
<path d="M18.9709 9.56332L18.2849 14.0563L14.6739 14.0843M12.4649 16.7413H22.9399M14.8819 16.7413L14.4689 22.7833M20.5229 16.7413L20.9359 22.7833M11.4129 9.70032H11.4049L7.25489 9.72432L4.21089 7.27032C4.18189 7.24632 4.14889 7.23032 4.11789 7.20932C4.0704 7.17382 4.02135 7.14046 3.97089 7.10932C3.91837 7.08328 3.86426 7.06057 3.80889 7.04132C3.77189 7.03132 3.73789 7.01332 3.69989 6.99932C3.62582 6.98003 3.55069 6.965 3.47489 6.95432C3.45389 6.95432 3.43489 6.94432 3.41289 6.94232H3.31289C3.08436 6.93428 2.85708 6.97931 2.64888 7.07387C2.44068 7.16843 2.25722 7.30995 2.11289 7.48732L2.09989 7.50032C2.07489 7.53032 2.05789 7.56532 2.03589 7.60032C2.01389 7.63532 1.97089 7.69032 1.94389 7.74032C1.91844 7.79426 1.89542 7.84932 1.87489 7.90532C1.86089 7.94232 1.84389 7.97532 1.83189 8.01432C1.81233 8.08484 1.79796 8.1567 1.78889 8.22932C1.78889 8.25432 1.77689 8.27632 1.77489 8.29932V8.31432L1.06689 15.6613C1.03351 16.0232 1.13261 16.3848 1.34577 16.6791C1.55894 16.9734 1.87168 17.1803 2.22589 17.2613L7.54689 18.4783L7.90689 21.7483C7.92805 21.9448 7.9878 22.1351 8.08273 22.3084C8.17765 22.4816 8.30587 22.6345 8.46002 22.7581C8.61418 22.8816 8.79123 22.9736 8.98101 23.0285C9.17079 23.0835 9.36955 23.1004 9.56589 23.0783C9.76179 23.0568 9.95152 22.9969 10.1242 22.902C10.297 22.8071 10.4493 22.6791 10.5725 22.5253C10.6958 22.3715 10.7875 22.1949 10.8425 22.0057C10.8974 21.8164 10.9146 21.6182 10.8929 21.4223L10.4159 17.0923C10.3821 16.7822 10.2526 16.4904 10.0452 16.2574C9.83782 16.0244 9.56297 15.8618 9.25889 15.7923L4.17889 14.6323L4.49989 11.3543L5.78789 12.4003C6.05489 12.6153 6.38789 12.7323 6.72989 12.7323H6.73889L11.4219 12.7053C11.8197 12.7041 12.2008 12.5449 12.4812 12.2628C12.7617 11.9806 12.9186 11.5986 12.9174 11.2008C12.9162 10.803 12.757 10.4219 12.4749 10.1415C12.1927 9.86102 11.8107 9.70413 11.4129 9.70532V9.70032Z" stroke="#879AB5" stroke-width="1.5" stroke-linecap="round" stroke-linejoin="round"/>
</g>
<defs>
<clipPath id="clip0_639_1617">
<rect width="24" height="24" fill="white"/>
</clipPath>
</defs>
</svg>
