<svg width="116" height="168" viewBox="0 0 116 168" fill="none" xmlns="http://www.w3.org/2000/svg">
<g clip-path="url(#clip0_8_189)">
<path d="M88.7587 68.4413C90.6642 68.4413 92.2089 66.904 92.2089 65.0077C92.2089 63.1115 90.6642 61.5742 88.7587 61.5742C86.8533 61.5742 85.3086 63.1115 85.3086 65.0077C85.3086 66.904 86.8533 68.4413 88.7587 68.4413Z" fill="#9FDBE9"/>
<path d="M87.0337 125.438C87.9864 125.438 88.7587 124.67 88.7587 123.722C88.7587 122.774 87.9864 122.005 87.0337 122.005C86.0809 122.005 85.3086 122.774 85.3086 123.722C85.3086 124.67 86.0809 125.438 87.0337 125.438Z" fill="#EECDEF"/>
<path d="M46.7837 21.7455C49.8959 21.7455 52.4189 19.2346 52.4189 16.1374C52.4189 13.0401 49.8959 10.5293 46.7837 10.5293C43.6714 10.5293 41.1484 13.0401 41.1484 16.1374C41.1484 19.2346 43.6714 21.7455 46.7837 21.7455Z" fill="#BEE2AE"/>
<path d="M108.194 7.096C109.528 7.096 110.61 6.01993 110.61 4.69253C110.61 3.36513 109.528 2.28906 108.194 2.28906C106.861 2.28906 105.779 3.36513 105.779 4.69253C105.779 6.01993 106.861 7.096 108.194 7.096Z" fill="#F7BFBF"/>
<path opacity="0.4" d="M76.7155 11.785L-33.2474 94.8572C-41.8632 101.366 -43.5457 113.593 -37.0053 122.168C-30.465 130.742 -18.1785 132.416 -9.56267 125.907L100.4 42.8353C109.016 36.3264 110.698 24.0991 104.158 15.5248C97.6178 6.95051 85.3313 5.27616 76.7155 11.785Z" fill="#9777FA"/>
<path opacity="0.4" d="M68.1462 76.0433L-17.9587 141.092C-25.0436 146.444 -26.4271 156.499 -21.0489 163.55L-21.0488 163.55C-15.6705 170.601 -5.56706 171.978 1.5179 166.625L87.6228 101.577C94.7077 96.2244 96.0912 86.1696 90.7129 79.1187C85.3346 72.0678 75.2312 70.691 68.1462 76.0433Z" fill="#5192FF"/>
<path opacity="0.5" d="M63.6315 138.219L1.41065 185.224C-4.46304 189.662 -5.61005 197.997 -1.15127 203.843C3.3075 209.688 11.6836 210.83 17.5573 206.392L79.7782 159.387C85.6519 154.95 86.7989 146.614 82.3401 140.769C77.8813 134.923 69.5052 133.782 63.6315 138.219Z" fill="#FFC48D" fill-opacity="0.8"/>
</g>
<defs>
<clipPath id="clip0_8_189">
<rect width="116" height="168" fill="white"/>
</clipPath>
</defs>
</svg>
