<svg width="158" height="111" viewBox="0 0 158 111" fill="none" xmlns="http://www.w3.org/2000/svg">
<path d="M246.062 -15.9375C246.062 -0.178875 242.959 15.4254 236.928 29.9845C230.897 44.5436 222.058 57.7723 210.915 68.9153C199.772 80.0583 186.544 88.8975 171.985 94.928C157.425 100.959 141.821 104.063 126.062 104.062C110.304 104.062 94.6996 100.959 80.1405 94.928C65.5814 88.8975 52.3527 80.0583 41.2097 68.9153C30.0667 57.7723 21.2275 44.5436 15.197 29.9845C9.16639 15.4254 6.0625 -0.178886 6.0625 -15.9375L41.2875 -15.9375C41.2875 -4.80469 43.4803 6.21911 47.7406 16.5045C52.0009 26.7899 58.2454 36.1354 66.1175 44.0075C73.9896 51.8796 83.3351 58.1241 93.6205 62.3844C103.906 66.6447 114.93 68.8375 126.062 68.8375C137.195 68.8375 148.219 66.6447 158.504 62.3844C168.79 58.1241 178.135 51.8796 186.007 44.0075C193.88 36.1354 200.124 26.7899 204.384 16.5045C208.645 6.21911 210.838 -4.80469 210.838 -15.9375L246.062 -15.9375Z" fill="#E7E2FC"/>
<path d="M6.22329 -9.71552C5.32034 -27.105 8.21271 -44.4827 14.6996 -60.6422C21.1865 -76.8017 31.1125 -91.3559 43.7886 -103.294C56.4646 -115.233 71.587 -124.27 88.106 -129.777C104.625 -135.285 122.145 -137.132 139.449 -135.189C156.753 -133.247 173.427 -127.561 188.314 -118.528C203.2 -109.495 215.943 -97.33 225.656 -82.8781C235.37 -68.4262 241.822 -52.0335 244.564 -34.8379C247.307 -17.6423 246.274 -0.0558297 241.538 16.7006L207.641 7.11978C210.987 -4.71796 211.716 -17.1421 209.779 -29.29C207.841 -41.438 203.283 -53.0188 196.421 -63.2285C189.559 -73.4381 180.557 -82.0321 170.04 -88.4137C159.524 -94.7953 147.744 -98.8117 135.519 -100.184C123.294 -101.556 110.918 -100.252 99.2476 -96.3608C87.5777 -92.4698 76.8943 -86.0858 67.9392 -77.6517C58.9841 -69.2177 51.9718 -58.9357 47.3891 -47.5197C42.8063 -36.1037 40.763 -23.8271 41.4009 -11.5421L6.22329 -9.71552Z" fill="#E7E2FC"/>
</svg>
