<svg width="18" height="22" viewBox="0 0 18 22" fill="none" xmlns="http://www.w3.org/2000/svg">
<path d="M8.7002 11.7C10.357 11.7 11.7002 10.3569 11.7002 8.7C11.7002 7.04314 10.357 5.7 8.7002 5.7C7.04334 5.7 5.7002 7.04314 5.7002 8.7C5.7002 10.3569 7.04334 11.7 8.7002 11.7Z" stroke="#87929B" stroke-width="1.4" stroke-linecap="round" stroke-linejoin="round"/>
<path d="M8.7002 0.699997C6.57846 0.699997 4.54363 1.54285 3.04334 3.04314C1.54305 4.54343 0.700195 6.57827 0.700195 8.7C0.700195 10.592 1.1022 11.83 2.2002 13.2L8.7002 20.7L15.2002 13.2C16.2982 11.83 16.7002 10.592 16.7002 8.7C16.7002 6.57827 15.8573 4.54343 14.357 3.04314C12.8568 1.54285 10.8219 0.699997 8.7002 0.699997Z" stroke="#87929B" stroke-width="1.4" stroke-linecap="round" stroke-linejoin="round"/>
</svg>
