<svg width="14" height="19" viewBox="0 0 14 19" fill="none" xmlns="http://www.w3.org/2000/svg">
<path fill-rule="evenodd" clip-rule="evenodd" d="M0 2.5C0 1.83696 0.263392 1.20107 0.732233 0.732233C1.20107 0.263392 1.83696 0 2.5 0H10.8333C11.4964 0 12.1323 0.263392 12.6011 0.732233C13.0699 1.20107 13.3333 1.83696 13.3333 2.5V15.8567C13.3333 16.8733 12.1833 17.465 11.3567 16.8742L6.66666 13.5242L1.97667 16.8742C1.14917 17.4658 0 16.8742 0 15.8575V2.5ZM2.5 1.66667C2.27899 1.66667 2.06702 1.75446 1.91074 1.91074C1.75446 2.06702 1.66667 2.27899 1.66667 2.5V15.0475L5.94 11.995C6.15202 11.8435 6.40609 11.7621 6.66666 11.7621C6.92724 11.7621 7.18131 11.8435 7.39333 11.995L11.6667 15.0475V2.5C11.6667 2.27899 11.5789 2.06702 11.4226 1.91074C11.2663 1.75446 11.0543 1.66667 10.8333 1.66667H2.5Z" fill="#00C7B8"/>
</svg>
