<svg width="18" height="18" viewBox="0 0 18 18" fill="none" xmlns="http://www.w3.org/2000/svg">
<path d="M8.99951 14.9994C10.5908 14.9994 12.1169 14.3672 13.2422 13.242C14.3674 12.1168 14.9995 10.5907 14.9995 8.99939C14.9995 7.40809 14.3674 5.88197 13.2422 4.75675C12.1169 3.63153 10.5908 2.99939 8.99951 2.99939C7.40821 2.99939 5.88209 3.63153 4.75687 4.75675C3.63165 5.88197 2.99951 7.40809 2.99951 8.99939C2.99951 10.5907 3.63165 12.1168 4.75687 13.242C5.88209 14.3672 7.40821 14.9994 8.99951 14.9994ZM8.99951 1.49939C9.98443 1.49939 10.9597 1.69338 11.8696 2.07029C12.7796 2.4472 13.6064 2.99965 14.3028 3.69609C14.9993 4.39253 15.5517 5.21932 15.9286 6.12926C16.3055 7.03921 16.4995 8.01448 16.4995 8.99939C16.4995 10.9885 15.7093 12.8962 14.3028 14.3027C12.8963 15.7092 10.9886 16.4994 8.99951 16.4994C4.85201 16.4994 1.49951 13.1244 1.49951 8.99939C1.49951 7.01027 2.28969 5.10261 3.69621 3.69609C5.10273 2.28957 7.01039 1.49939 8.99951 1.49939ZM9.37451 5.24939V9.18689L12.7495 11.1894L12.187 12.1119L8.24951 9.74939V5.24939H9.37451Z" fill="#2481FB"/>
</svg>
