<svg width="14" height="17" viewBox="0 0 14 17" fill="none" xmlns="http://www.w3.org/2000/svg">
<path d="M6.69971 8.94934C7.94235 8.94934 8.94971 7.94198 8.94971 6.69934C8.94971 5.4567 7.94235 4.44934 6.69971 4.44934C5.45707 4.44934 4.44971 5.4567 4.44971 6.69934C4.44971 7.94198 5.45707 8.94934 6.69971 8.94934Z" stroke="#2481FB" stroke-width="1.4" stroke-linecap="round" stroke-linejoin="round"/>
<path d="M6.70019 0.699951C5.1089 0.699951 3.58277 1.33209 2.45755 2.45731C1.33234 3.58253 0.700195 5.10865 0.700195 6.69995C0.700195 8.11895 1.0017 9.04745 1.8252 10.075L6.70019 15.7L11.5752 10.075C12.3987 9.04745 12.7002 8.11895 12.7002 6.69995C12.7002 5.10865 12.0681 3.58253 10.9428 2.45731C9.81762 1.33209 8.29149 0.699951 6.70019 0.699951Z" stroke="#2481FB" stroke-width="1.4" stroke-linecap="round" stroke-linejoin="round"/>
</svg>
