<svg width="21" height="21" viewBox="0 0 21 21" fill="none" xmlns="http://www.w3.org/2000/svg">
<path fill-rule="evenodd" clip-rule="evenodd" d="M6.125 1.75C5.42881 1.75 4.76113 2.02656 4.26884 2.51884C3.77656 3.01113 3.5 3.67881 3.5 4.375V17.6208C3.49992 17.8507 3.56024 18.0766 3.67492 18.2758C3.78959 18.4751 3.95461 18.6408 4.15343 18.7562C4.35226 18.8717 4.57793 18.9329 4.80785 18.9337C5.03776 18.9345 5.26386 18.8749 5.4635 18.7609L10.066 16.1306C10.1982 16.0551 10.3478 16.0154 10.5 16.0154C10.6522 16.0154 10.8018 16.0551 10.934 16.1306L15.5365 18.7609C15.7361 18.8749 15.9622 18.9345 16.1922 18.9337C16.4221 18.9329 16.6477 18.8717 16.8466 18.7562C17.0454 18.6408 17.2104 18.4751 17.3251 18.2758C17.4398 18.0766 17.5001 17.8507 17.5 17.6208V4.375C17.5 3.67881 17.2234 3.01113 16.7312 2.51884C16.2389 2.02656 15.5712 1.75 14.875 1.75H6.125Z" fill="#0068CA"/>
</svg>
