<svg width="20" height="16" viewBox="0 0 20 16" fill="none" xmlns="http://www.w3.org/2000/svg">
<path d="M0.900391 0.900391V0.150391C0.701478 0.150391 0.510713 0.229408 0.37006 0.37006C0.229408 0.510713 0.150391 0.701478 0.150391 0.900391H0.900391ZM18.9004 0.900391H19.6504C19.6504 0.701478 19.5714 0.510713 19.4307 0.37006C19.2901 0.229408 19.0993 0.150391 18.9004 0.150391V0.900391ZM0.900391 1.65039H18.9004V0.150391H0.900391V1.65039ZM18.1504 0.900391V12.9004H19.6504V0.900391H18.1504ZM16.9004 14.1504H2.90039V15.6504H16.9004V14.1504ZM1.65039 12.9004V0.900391H0.150391V12.9004H1.65039ZM2.90039 14.1504C2.21039 14.1504 1.65039 13.5904 1.65039 12.9004H0.150391C0.150391 13.6297 0.440122 14.3292 0.955847 14.8449C1.47157 15.3607 2.17105 15.6504 2.90039 15.6504V14.1504ZM18.1504 12.9004C18.1504 13.5904 17.5904 14.1504 16.9004 14.1504V15.6504C17.6297 15.6504 18.3292 15.3607 18.8449 14.8449C19.3607 14.3292 19.6504 13.6297 19.6504 12.9004H18.1504Z" fill="#6058FF"/>
<path d="M0.900391 0.900391L9.90039 9.90039L18.9004 0.900391" stroke="#6058FF" stroke-width="1.8" stroke-linecap="round" stroke-linejoin="round"/>
</svg>
