<svg width="22" height="22" viewBox="0 0 22 22" fill="none" xmlns="http://www.w3.org/2000/svg">
<path d="M10.9004 13.9004C11.696 13.9004 12.4591 13.5843 13.0217 13.0217C13.5843 12.4591 13.9004 11.696 13.9004 10.9004C13.9004 10.1047 13.5843 9.34168 13.0217 8.77907C12.4591 8.21646 11.696 7.90039 10.9004 7.90039C10.1047 7.90039 9.34168 8.21646 8.77907 8.77907C8.21646 9.34168 7.90039 10.1047 7.90039 10.9004C7.90039 11.696 8.21646 12.4591 8.77907 13.0217C9.34168 13.5843 10.1047 13.9004 10.9004 13.9004Z" stroke="black" stroke-width="1.8" stroke-linecap="round" stroke-linejoin="round"/>
<path d="M18.5224 9.29539L17.4254 6.64539L18.9004 4.90039L16.9004 2.90039L15.1654 4.38339L12.4584 3.27039L11.8354 0.900391H9.88139L9.24939 3.30139L6.60439 4.41639L4.90039 2.90039L2.90039 4.90039L4.35339 6.68939L3.27339 9.34639L0.900391 9.90039V11.9004L3.30139 12.5564L4.41639 15.2004L2.90039 16.9004L4.90039 18.9004L6.69139 17.4404L9.29739 18.5124L9.90039 20.9004H11.9004L12.5044 18.5134L15.1554 17.4154C15.5974 17.7324 16.9004 18.9004 16.9004 18.9004L18.9004 16.9004L17.4164 15.1504L18.5144 12.4984L20.9004 11.8784V9.90039L18.5224 9.29539Z" stroke="black" stroke-width="1.8" stroke-linecap="round" stroke-linejoin="round"/>
</svg>
