<svg width="21" height="21" viewBox="0 0 21 21" fill="none" xmlns="http://www.w3.org/2000/svg">
<path d="M17.2394 12.5926V17.0326C17.2392 17.6608 16.9895 18.2632 16.5453 18.7074C16.1011 19.1516 15.4986 19.4013 14.8704 19.4016H3.26943C2.95719 19.4015 2.64804 19.3396 2.35977 19.2197C2.07149 19.0997 1.80976 18.9239 1.58962 18.7025C1.36948 18.481 1.19527 18.2183 1.077 17.9293C0.958724 17.6403 0.89872 17.3308 0.900432 17.0186V5.43059C0.898574 5.11884 0.958608 4.80982 1.07705 4.52144C1.1955 4.23305 1.37 3.97105 1.59045 3.7506C1.81089 3.53016 2.0729 3.35566 2.36128 3.23721C2.64966 3.11876 2.95868 3.05873 3.27043 3.06059H7.70943" stroke="#3EBA88" stroke-width="1.8" stroke-linecap="round" stroke-linejoin="round"/>
<path d="M17.2394 7.14609L13.1544 3.06009M4.98438 13.9541V11.7891C4.98638 11.4321 5.12838 11.0891 5.37938 10.8361L14.9114 1.30409C15.0379 1.1762 15.1884 1.07466 15.3544 1.00537C15.5204 0.936071 15.6985 0.900391 15.8784 0.900391C16.0582 0.900391 16.2363 0.936071 16.4023 1.00537C16.5683 1.07466 16.7189 1.1762 16.8454 1.30409L18.9964 3.45509C19.1243 3.58157 19.2258 3.73216 19.2951 3.89815C19.3644 4.06413 19.4001 4.24222 19.4001 4.42209C19.4001 4.60196 19.3644 4.78005 19.2951 4.94603C19.2258 5.11202 19.1243 5.26261 18.9964 5.38909L9.46438 14.9211C9.21091 15.1728 8.86859 15.3147 8.51138 15.3161H6.34638C6.16744 15.3164 5.99021 15.2813 5.82485 15.213C5.65949 15.1446 5.50924 15.0443 5.38271 14.9178C5.25618 14.7912 5.15587 14.641 5.08752 14.4756C5.01916 14.3103 4.98411 14.133 4.98438 13.9541Z" stroke="#3EBA88" stroke-width="1.8" stroke-linecap="round" stroke-linejoin="round"/>
</svg>
