<svg width="48" height="48" viewBox="0 0 48 48" fill="none" xmlns="http://www.w3.org/2000/svg">
<circle cx="24" cy="24" r="24" fill="#0068CE"/>
<path fill-rule="evenodd" clip-rule="evenodd" d="M17.6674 16.8421V15.2821C17.6676 14.7235 17.8682 14.1835 18.2327 13.7602C18.5973 13.3369 19.1016 13.0584 19.654 12.9755L21.2807 12.7315C23.084 12.4619 24.9174 12.4619 26.7207 12.7315L28.3474 12.9755C28.8998 13.0584 29.4041 13.3369 29.7687 13.7602C30.1333 14.1835 30.3339 14.7235 30.334 15.2821V16.8421L32.6194 17.0261C33.4696 17.0948 34.2723 17.4466 34.8991 18.0253C35.5258 18.6039 35.9405 19.376 36.0767 20.2181C36.6977 24.0482 36.6977 27.9533 36.0767 31.7835C35.9405 32.6255 35.5258 33.3976 34.8991 33.9763C34.2723 34.555 33.4696 34.9068 32.6194 34.9755L30.1234 35.1755C26.0482 35.5048 21.9532 35.5048 17.878 35.1755L15.382 34.9755C14.5318 34.9068 13.7291 34.555 13.1023 33.9763C12.4756 33.3976 12.0609 32.6255 11.9247 31.7835C11.3037 27.9533 11.3037 24.0482 11.9247 20.2181C12.0612 19.3763 12.476 18.6045 13.1027 18.0261C13.7294 17.4477 14.532 17.0961 15.382 17.0275L17.6674 16.8421ZM21.578 14.7088C23.1842 14.4689 24.8172 14.4689 26.4234 14.7088L28.05 14.9528C28.129 14.9646 28.201 15.0043 28.2531 15.0648C28.3053 15.1252 28.334 15.2023 28.334 15.2821V16.7021C25.4475 16.5373 22.5539 16.5373 19.6674 16.7021V15.2808C19.6675 15.201 19.6962 15.1239 19.7483 15.0634C19.8004 15.003 19.8725 14.9633 19.9514 14.9515L21.578 14.7088ZM18.0394 18.8181C22.0074 18.4981 25.994 18.4981 29.962 18.8181L32.458 19.0208C32.8625 19.0531 33.2444 19.2202 33.5427 19.4953C33.841 19.7704 34.0384 20.1376 34.1034 20.5381C34.186 21.051 34.2571 21.5657 34.3167 22.0821C31.1072 23.6618 27.5779 24.4834 24.0007 24.4834C20.4235 24.4834 16.8942 23.6618 13.6847 22.0821C13.7434 21.5666 13.8145 21.0519 13.898 20.5381C13.963 20.1376 14.1604 19.7704 14.4587 19.4953C14.757 19.2202 15.1389 19.0531 15.5434 19.0208L18.0394 18.8181ZM13.506 24.2101C16.8019 25.7083 20.3803 26.4835 24.0007 26.4835C27.6211 26.4835 31.1995 25.7083 34.4954 24.2101C34.6231 26.635 34.4917 29.0665 34.1034 31.4635C34.0387 31.8642 33.8414 32.2317 33.5431 32.5071C33.2448 32.7824 32.8627 32.9497 32.458 32.9821L29.962 33.1821C25.994 33.5021 22.0074 33.5021 18.0394 33.1821L15.5434 32.9821C15.1387 32.9497 14.7566 32.7824 14.4583 32.5071C14.16 32.2317 13.9627 31.8642 13.898 31.4635C13.51 29.0635 13.378 26.6315 13.506 24.2101Z" fill="white"/>
</svg>
