<svg width="48" height="48" viewBox="0 0 48 48" fill="none" xmlns="http://www.w3.org/2000/svg">
<circle cx="24" cy="24" r="24" fill="#00C7B8"/>
<g clip-path="url(#clip0_353_4280)">
<path d="M10.875 26.625V37.125M20.5 31.875H24.875C25.8033 31.875 26.6935 32.2438 27.3499 32.9001C28.0063 33.5565 28.375 34.4467 28.375 35.375H10.875V28.375H17C17.9283 28.375 18.8185 28.7438 19.4749 29.4001C20.1313 30.0565 20.5 30.9467 20.5 31.875ZM20.5 31.875H17M18.4583 24.875V16.7083C18.4583 16.0895 18.7042 15.496 19.1418 15.0584C19.5793 14.6208 20.1728 14.375 20.7917 14.375H34.7917C35.4105 14.375 36.004 14.6208 36.4416 15.0584C36.8792 15.496 37.125 16.0895 37.125 16.7083V24.875C37.125 25.4938 36.8792 26.0873 36.4416 26.5249C36.004 26.9625 35.4105 27.2083 34.7917 27.2083H22.8333M18.4583 19.0417H37.125M27.7917 19.0417V21.375M31.2917 14.375H24.2917L24.7128 11.8503C24.7582 11.5773 24.8992 11.3293 25.1105 11.1507C25.3219 10.972 25.5899 10.8743 25.8667 10.875H29.7167C29.9928 10.8751 30.26 10.9732 30.4706 11.1518C30.6813 11.3304 30.8217 11.5779 30.867 11.8503L31.2917 14.375Z" stroke="#0F283C" stroke-width="1.5" stroke-linecap="round" stroke-linejoin="round"/>
</g>
<defs>
<clipPath id="clip0_353_4280">
<rect width="28" height="28" fill="white" transform="translate(10 10)"/>
</clipPath>
</defs>
</svg>
