<svg width="48" height="48" viewBox="0 0 48 48" fill="none" xmlns="http://www.w3.org/2000/svg">
<circle cx="24" cy="24" r="24" fill="#FF495E"/>
<path d="M23.9993 34.666C18.1193 34.666 13.3327 29.8793 13.3327 23.9993C13.3327 18.1193 18.1193 13.3327 23.9993 13.3327C29.8793 13.3327 34.666 18.1193 34.666 23.9993C34.666 29.8793 29.8793 34.666 23.9993 34.666ZM23.9993 10.666C16.626 10.666 10.666 16.626 10.666 23.9993C10.666 31.3727 16.626 37.3327 23.9993 37.3327C31.3727 37.3327 37.3327 31.3727 37.3327 23.9993C37.3327 16.626 31.3727 10.666 23.9993 10.666ZM27.4527 18.666L23.9993 22.1193L20.546 18.666L18.666 20.546L22.1193 23.9993L18.666 27.4527L20.546 29.3327L23.9993 25.8793L27.4527 29.3327L29.3327 27.4527L25.8793 23.9993L29.3327 20.546L27.4527 18.666Z" fill="white"/>
</svg>
