<svg width="48" height="48" viewBox="0 0 48 48" fill="none" xmlns="http://www.w3.org/2000/svg">
<circle cx="24" cy="24" r="24" fill="#FFCA37"/>
<path d="M20 14.666C20 13.6051 20.4214 12.5877 21.1716 11.8376C21.9217 11.0874 22.9391 10.666 24 10.666C25.0609 10.666 26.0783 11.0874 26.8284 11.8376C27.5786 12.5877 28 13.6051 28 14.666V21.3327C28 22.3935 27.5786 23.411 26.8284 24.1611C26.0783 24.9113 25.0609 25.3327 24 25.3327C22.9391 25.3327 21.9217 24.9113 21.1716 24.1611C20.4214 23.411 20 22.3935 20 21.3327V14.666Z" stroke="#0F283C" stroke-width="2" stroke-linecap="round" stroke-linejoin="round"/>
<path d="M14.666 21.332C14.666 23.8074 15.6493 26.1814 17.3997 27.9317C19.15 29.682 21.524 30.6654 23.9993 30.6654M23.9993 30.6654C26.4747 30.6654 28.8487 29.682 30.599 27.9317C32.3494 26.1814 33.3327 23.8074 33.3327 21.332M23.9993 30.6654V35.9987M18.666 35.9987H29.3327" stroke="#0F283C" stroke-width="2" stroke-linecap="round" stroke-linejoin="round"/>
</svg>
